G75*
G70*
%OFA0B0*%
%FSLAX24Y24*%
%IPPOS*%
%LPD*%
%AMOC8*
5,1,8,0,0,1.08239X$1,22.5*
%
%ADD10C,0.0000*%
%ADD11R,0.0984X0.0591*%
%ADD12R,0.0400X0.0800*%
%ADD13R,0.0787X0.0197*%
D10*
X007100Y007800D02*
X026100Y007800D01*
X036100Y016800D02*
X036050Y017302D01*
X035977Y017801D01*
X035879Y018296D01*
X035756Y018785D01*
X035610Y019268D01*
X035441Y019743D01*
X035248Y020209D01*
X035032Y020665D01*
X034795Y021110D01*
X034536Y021543D01*
X034256Y021963D01*
X033956Y022368D01*
X033636Y022758D01*
X033297Y023132D01*
X032941Y023489D01*
X032567Y023828D01*
X032178Y024148D01*
X031773Y024449D01*
X031353Y024729D01*
X030921Y024989D01*
X030476Y025227D01*
X030020Y025443D01*
X029554Y025636D01*
X029079Y025806D01*
X028597Y025953D01*
X028108Y026076D01*
X027613Y026175D01*
X027114Y026249D01*
X026612Y026299D01*
X026108Y026324D01*
X025604Y026324D01*
X025100Y026300D01*
X006600Y026300D01*
X004950Y024800D02*
X004952Y024850D01*
X004958Y024900D01*
X004968Y024950D01*
X004981Y024998D01*
X004998Y025046D01*
X005019Y025092D01*
X005043Y025136D01*
X005071Y025178D01*
X005102Y025218D01*
X005136Y025255D01*
X005173Y025290D01*
X005212Y025321D01*
X005253Y025350D01*
X005297Y025375D01*
X005343Y025397D01*
X005390Y025415D01*
X005438Y025429D01*
X005487Y025440D01*
X005537Y025447D01*
X005587Y025450D01*
X005638Y025449D01*
X005688Y025444D01*
X005738Y025435D01*
X005786Y025423D01*
X005834Y025406D01*
X005880Y025386D01*
X005925Y025363D01*
X005968Y025336D01*
X006008Y025306D01*
X006046Y025273D01*
X006081Y025237D01*
X006114Y025198D01*
X006143Y025157D01*
X006169Y025114D01*
X006192Y025069D01*
X006211Y025022D01*
X006226Y024974D01*
X006238Y024925D01*
X006246Y024875D01*
X006250Y024825D01*
X006250Y024775D01*
X006246Y024725D01*
X006238Y024675D01*
X006226Y024626D01*
X006211Y024578D01*
X006192Y024531D01*
X006169Y024486D01*
X006143Y024443D01*
X006114Y024402D01*
X006081Y024363D01*
X006046Y024327D01*
X006008Y024294D01*
X005968Y024264D01*
X005925Y024237D01*
X005880Y024214D01*
X005834Y024194D01*
X005786Y024177D01*
X005738Y024165D01*
X005688Y024156D01*
X005638Y024151D01*
X005587Y024150D01*
X005537Y024153D01*
X005487Y024160D01*
X005438Y024171D01*
X005390Y024185D01*
X005343Y024203D01*
X005297Y024225D01*
X005253Y024250D01*
X005212Y024279D01*
X005173Y024310D01*
X005136Y024345D01*
X005102Y024382D01*
X005071Y024422D01*
X005043Y024464D01*
X005019Y024508D01*
X004998Y024554D01*
X004981Y024602D01*
X004968Y024650D01*
X004958Y024700D01*
X004952Y024750D01*
X004950Y024800D01*
X004600Y024300D02*
X004600Y009800D01*
X004950Y009800D02*
X004952Y009850D01*
X004958Y009900D01*
X004968Y009950D01*
X004981Y009998D01*
X004998Y010046D01*
X005019Y010092D01*
X005043Y010136D01*
X005071Y010178D01*
X005102Y010218D01*
X005136Y010255D01*
X005173Y010290D01*
X005212Y010321D01*
X005253Y010350D01*
X005297Y010375D01*
X005343Y010397D01*
X005390Y010415D01*
X005438Y010429D01*
X005487Y010440D01*
X005537Y010447D01*
X005587Y010450D01*
X005638Y010449D01*
X005688Y010444D01*
X005738Y010435D01*
X005786Y010423D01*
X005834Y010406D01*
X005880Y010386D01*
X005925Y010363D01*
X005968Y010336D01*
X006008Y010306D01*
X006046Y010273D01*
X006081Y010237D01*
X006114Y010198D01*
X006143Y010157D01*
X006169Y010114D01*
X006192Y010069D01*
X006211Y010022D01*
X006226Y009974D01*
X006238Y009925D01*
X006246Y009875D01*
X006250Y009825D01*
X006250Y009775D01*
X006246Y009725D01*
X006238Y009675D01*
X006226Y009626D01*
X006211Y009578D01*
X006192Y009531D01*
X006169Y009486D01*
X006143Y009443D01*
X006114Y009402D01*
X006081Y009363D01*
X006046Y009327D01*
X006008Y009294D01*
X005968Y009264D01*
X005925Y009237D01*
X005880Y009214D01*
X005834Y009194D01*
X005786Y009177D01*
X005738Y009165D01*
X005688Y009156D01*
X005638Y009151D01*
X005587Y009150D01*
X005537Y009153D01*
X005487Y009160D01*
X005438Y009171D01*
X005390Y009185D01*
X005343Y009203D01*
X005297Y009225D01*
X005253Y009250D01*
X005212Y009279D01*
X005173Y009310D01*
X005136Y009345D01*
X005102Y009382D01*
X005071Y009422D01*
X005043Y009464D01*
X005019Y009508D01*
X004998Y009554D01*
X004981Y009602D01*
X004968Y009650D01*
X004958Y009700D01*
X004952Y009750D01*
X004950Y009800D01*
X004600Y009800D02*
X004614Y009693D01*
X004634Y009587D01*
X004658Y009482D01*
X004688Y009379D01*
X004722Y009277D01*
X004761Y009176D01*
X004805Y009078D01*
X004854Y008982D01*
X004907Y008888D01*
X004965Y008797D01*
X005026Y008708D01*
X005092Y008623D01*
X005162Y008541D01*
X005236Y008463D01*
X005313Y008388D01*
X005394Y008316D01*
X005478Y008249D01*
X005565Y008186D01*
X005656Y008127D01*
X005748Y008072D01*
X005844Y008022D01*
X005941Y007976D01*
X006041Y007935D01*
X006143Y007899D01*
X006246Y007868D01*
X006350Y007842D01*
X006456Y007821D01*
X006562Y007804D01*
X006670Y007793D01*
X006777Y007787D01*
X006885Y007786D01*
X006993Y007790D01*
X007100Y007800D01*
X026100Y007800D02*
X026555Y007775D01*
X027010Y007771D01*
X027465Y007790D01*
X027919Y007832D01*
X028370Y007895D01*
X028817Y007981D01*
X029260Y008088D01*
X029697Y008217D01*
X030127Y008368D01*
X030549Y008539D01*
X030962Y008731D01*
X031365Y008943D01*
X031758Y009174D01*
X032138Y009424D01*
X032506Y009693D01*
X032860Y009979D01*
X033200Y010283D01*
X033524Y010602D01*
X033833Y010938D01*
X034124Y011288D01*
X034398Y011651D01*
X034654Y012028D01*
X034891Y012417D01*
X035109Y012817D01*
X035306Y013228D01*
X035484Y013647D01*
X035640Y014075D01*
X035776Y014510D01*
X035889Y014951D01*
X035982Y015397D01*
X036052Y015847D01*
X036100Y016300D01*
X036100Y016800D01*
X026450Y022300D02*
X026452Y022350D01*
X026458Y022400D01*
X026468Y022450D01*
X026481Y022498D01*
X026498Y022546D01*
X026519Y022592D01*
X026543Y022636D01*
X026571Y022678D01*
X026602Y022718D01*
X026636Y022755D01*
X026673Y022790D01*
X026712Y022821D01*
X026753Y022850D01*
X026797Y022875D01*
X026843Y022897D01*
X026890Y022915D01*
X026938Y022929D01*
X026987Y022940D01*
X027037Y022947D01*
X027087Y022950D01*
X027138Y022949D01*
X027188Y022944D01*
X027238Y022935D01*
X027286Y022923D01*
X027334Y022906D01*
X027380Y022886D01*
X027425Y022863D01*
X027468Y022836D01*
X027508Y022806D01*
X027546Y022773D01*
X027581Y022737D01*
X027614Y022698D01*
X027643Y022657D01*
X027669Y022614D01*
X027692Y022569D01*
X027711Y022522D01*
X027726Y022474D01*
X027738Y022425D01*
X027746Y022375D01*
X027750Y022325D01*
X027750Y022275D01*
X027746Y022225D01*
X027738Y022175D01*
X027726Y022126D01*
X027711Y022078D01*
X027692Y022031D01*
X027669Y021986D01*
X027643Y021943D01*
X027614Y021902D01*
X027581Y021863D01*
X027546Y021827D01*
X027508Y021794D01*
X027468Y021764D01*
X027425Y021737D01*
X027380Y021714D01*
X027334Y021694D01*
X027286Y021677D01*
X027238Y021665D01*
X027188Y021656D01*
X027138Y021651D01*
X027087Y021650D01*
X027037Y021653D01*
X026987Y021660D01*
X026938Y021671D01*
X026890Y021685D01*
X026843Y021703D01*
X026797Y021725D01*
X026753Y021750D01*
X026712Y021779D01*
X026673Y021810D01*
X026636Y021845D01*
X026602Y021882D01*
X026571Y021922D01*
X026543Y021964D01*
X026519Y022008D01*
X026498Y022054D01*
X026481Y022102D01*
X026468Y022150D01*
X026458Y022200D01*
X026452Y022250D01*
X026450Y022300D01*
X006600Y026300D02*
X006505Y026298D01*
X006410Y026291D01*
X006315Y026280D01*
X006221Y026264D01*
X006128Y026244D01*
X006037Y026219D01*
X005946Y026190D01*
X005857Y026157D01*
X005769Y026119D01*
X005684Y026078D01*
X005600Y026032D01*
X005519Y025983D01*
X005440Y025929D01*
X005364Y025872D01*
X005290Y025811D01*
X005220Y025747D01*
X005153Y025680D01*
X005089Y025610D01*
X005028Y025536D01*
X004971Y025460D01*
X004917Y025381D01*
X004868Y025300D01*
X004822Y025216D01*
X004781Y025131D01*
X004743Y025043D01*
X004710Y024954D01*
X004681Y024863D01*
X004656Y024772D01*
X004636Y024679D01*
X004620Y024585D01*
X004609Y024490D01*
X004602Y024395D01*
X004600Y024300D01*
D11*
X017606Y010944D03*
X017606Y009156D03*
X020994Y009156D03*
X023106Y009156D03*
X023106Y010944D03*
X020994Y010944D03*
X026494Y010944D03*
X026494Y009156D03*
X011994Y008956D03*
X011994Y010744D03*
X008606Y010744D03*
X008606Y008956D03*
D12*
X013684Y008488D03*
X014684Y008488D03*
X015684Y008488D03*
X015716Y011112D03*
X014716Y011112D03*
X013716Y011112D03*
D13*
X020207Y016303D03*
X020207Y016618D03*
X020207Y016933D03*
X020207Y017248D03*
X020207Y017563D03*
X020207Y017878D03*
X020207Y018193D03*
X020207Y018507D03*
X020207Y018822D03*
X020207Y019137D03*
X020207Y019452D03*
X020207Y019767D03*
X020207Y020082D03*
X020207Y020397D03*
M02*
