G75*
G70*
%OFA0B0*%
%FSLAX24Y24*%
%IPPOS*%
%LPD*%
%AMOC8*
5,1,8,0,0,1.08239X$1,22.5*
%
%ADD10R,0.0395X0.0198*%
%ADD11R,0.0474X0.0789*%
%ADD12OC8,0.0820*%
%ADD13R,0.0710X0.0592*%
%ADD14R,0.0592X0.0710*%
%ADD15R,0.1080X0.0680*%
%ADD16R,0.0552X0.0395*%
%ADD17R,0.0395X0.0552*%
%ADD18R,0.0631X0.0474*%
%ADD19R,0.0395X0.0671*%
%ADD20R,0.0631X0.0828*%
%ADD21R,0.0789X0.0631*%
%ADD22R,0.0552X0.0297*%
%ADD23C,0.0650*%
%ADD24R,0.0671X0.0671*%
%ADD25R,0.0592X0.0671*%
%ADD26R,0.0474X0.0513*%
%ADD27R,0.0513X0.0474*%
%ADD28C,0.0820*%
%ADD29R,0.1261X0.0631*%
%ADD30R,0.0820X0.0820*%
%ADD31C,0.0980*%
%ADD32C,0.0780*%
%ADD33R,0.0631X0.0218*%
%ADD34R,0.0828X0.0789*%
%ADD35C,0.1380*%
%ADD36R,0.0474X0.0631*%
D10*
G36*
X017328Y014701D02*
X017606Y014979D01*
X017746Y014839D01*
X017468Y014561D01*
X017328Y014701D01*
G37*
G36*
X017189Y014840D02*
X017467Y015118D01*
X017607Y014978D01*
X017329Y014700D01*
X017189Y014840D01*
G37*
G36*
X017050Y014979D02*
X017328Y015257D01*
X017468Y015117D01*
X017190Y014839D01*
X017050Y014979D01*
G37*
G36*
X016911Y015118D02*
X017189Y015396D01*
X017329Y015256D01*
X017051Y014978D01*
X016911Y015118D01*
G37*
G36*
X016772Y015257D02*
X017050Y015535D01*
X017190Y015395D01*
X016912Y015117D01*
X016772Y015257D01*
G37*
G36*
X016632Y015397D02*
X016910Y015675D01*
X017050Y015535D01*
X016772Y015257D01*
X016632Y015397D01*
G37*
G36*
X016911Y015674D02*
X016633Y015396D01*
X016493Y015536D01*
X016771Y015814D01*
X016911Y015674D01*
G37*
G36*
X016772Y015813D02*
X016494Y015535D01*
X016354Y015675D01*
X016632Y015953D01*
X016772Y015813D01*
G37*
G36*
X016633Y015952D02*
X016355Y015674D01*
X016215Y015814D01*
X016493Y016092D01*
X016633Y015952D01*
G37*
G36*
X016494Y016091D02*
X016216Y015813D01*
X016076Y015953D01*
X016354Y016231D01*
X016494Y016091D01*
G37*
G36*
X016354Y016231D02*
X016076Y015953D01*
X015936Y016093D01*
X016214Y016371D01*
X016354Y016231D01*
G37*
G36*
X016076Y016872D02*
X016354Y016594D01*
X016214Y016454D01*
X015936Y016732D01*
X016076Y016872D01*
G37*
G36*
X016216Y017011D02*
X016494Y016733D01*
X016354Y016593D01*
X016076Y016871D01*
X016216Y017011D01*
G37*
G36*
X016355Y017150D02*
X016633Y016872D01*
X016493Y016732D01*
X016215Y017010D01*
X016355Y017150D01*
G37*
G36*
X016494Y017289D02*
X016772Y017011D01*
X016632Y016871D01*
X016354Y017149D01*
X016494Y017289D01*
G37*
G36*
X016633Y017428D02*
X016911Y017150D01*
X016771Y017010D01*
X016493Y017288D01*
X016633Y017428D01*
G37*
G36*
X016772Y017568D02*
X017050Y017290D01*
X016910Y017150D01*
X016632Y017428D01*
X016772Y017568D01*
G37*
G36*
X017050Y017289D02*
X016772Y017567D01*
X016912Y017707D01*
X017190Y017429D01*
X017050Y017289D01*
G37*
G36*
X017189Y017428D02*
X016911Y017706D01*
X017051Y017846D01*
X017329Y017568D01*
X017189Y017428D01*
G37*
G36*
X017328Y017567D02*
X017050Y017845D01*
X017190Y017985D01*
X017468Y017707D01*
X017328Y017567D01*
G37*
G36*
X017467Y017706D02*
X017189Y017984D01*
X017329Y018124D01*
X017607Y017846D01*
X017467Y017706D01*
G37*
G36*
X017606Y017846D02*
X017328Y018124D01*
X017468Y018264D01*
X017746Y017986D01*
X017606Y017846D01*
G37*
G36*
X018247Y018124D02*
X017969Y017846D01*
X017829Y017986D01*
X018107Y018264D01*
X018247Y018124D01*
G37*
G36*
X018387Y017984D02*
X018109Y017706D01*
X017969Y017846D01*
X018247Y018124D01*
X018387Y017984D01*
G37*
G36*
X018526Y017845D02*
X018248Y017567D01*
X018108Y017707D01*
X018386Y017985D01*
X018526Y017845D01*
G37*
G36*
X018665Y017706D02*
X018387Y017428D01*
X018247Y017568D01*
X018525Y017846D01*
X018665Y017706D01*
G37*
G36*
X018804Y017567D02*
X018526Y017289D01*
X018386Y017429D01*
X018664Y017707D01*
X018804Y017567D01*
G37*
G36*
X018943Y017428D02*
X018665Y017150D01*
X018525Y017290D01*
X018803Y017568D01*
X018943Y017428D01*
G37*
G36*
X018665Y017150D02*
X018943Y017428D01*
X019083Y017288D01*
X018805Y017010D01*
X018665Y017150D01*
G37*
G36*
X018804Y017011D02*
X019082Y017289D01*
X019222Y017149D01*
X018944Y016871D01*
X018804Y017011D01*
G37*
G36*
X018943Y016872D02*
X019221Y017150D01*
X019361Y017010D01*
X019083Y016732D01*
X018943Y016872D01*
G37*
G36*
X019082Y016733D02*
X019360Y017011D01*
X019500Y016871D01*
X019222Y016593D01*
X019082Y016733D01*
G37*
G36*
X019221Y016594D02*
X019499Y016872D01*
X019639Y016732D01*
X019361Y016454D01*
X019221Y016594D01*
G37*
G36*
X019499Y015953D02*
X019221Y016231D01*
X019361Y016371D01*
X019639Y016093D01*
X019499Y015953D01*
G37*
G36*
X019360Y015813D02*
X019082Y016091D01*
X019222Y016231D01*
X019500Y015953D01*
X019360Y015813D01*
G37*
G36*
X019221Y015674D02*
X018943Y015952D01*
X019083Y016092D01*
X019361Y015814D01*
X019221Y015674D01*
G37*
G36*
X019082Y015535D02*
X018804Y015813D01*
X018944Y015953D01*
X019222Y015675D01*
X019082Y015535D01*
G37*
G36*
X018943Y015396D02*
X018665Y015674D01*
X018805Y015814D01*
X019083Y015536D01*
X018943Y015396D01*
G37*
G36*
X018803Y015257D02*
X018525Y015535D01*
X018665Y015675D01*
X018943Y015397D01*
X018803Y015257D01*
G37*
G36*
X018526Y015535D02*
X018804Y015257D01*
X018664Y015117D01*
X018386Y015395D01*
X018526Y015535D01*
G37*
G36*
X018387Y015396D02*
X018665Y015118D01*
X018525Y014978D01*
X018247Y015256D01*
X018387Y015396D01*
G37*
G36*
X018248Y015257D02*
X018526Y014979D01*
X018386Y014839D01*
X018108Y015117D01*
X018248Y015257D01*
G37*
G36*
X018109Y015118D02*
X018387Y014840D01*
X018247Y014700D01*
X017969Y014978D01*
X018109Y015118D01*
G37*
G36*
X017969Y014979D02*
X018247Y014701D01*
X018107Y014561D01*
X017829Y014839D01*
X017969Y014979D01*
G37*
D11*
X031349Y019300D03*
X032451Y019300D03*
D12*
X009500Y013300D03*
X008500Y013300D03*
X008500Y012300D03*
X009500Y012300D03*
X007500Y012300D03*
X007500Y013300D03*
D13*
X009800Y015726D03*
X009800Y016474D03*
X009700Y017726D03*
X009700Y018474D03*
X007900Y010174D03*
X007900Y009426D03*
D14*
X006374Y012700D03*
X005626Y012700D03*
X005526Y016900D03*
X006274Y016900D03*
X017426Y008400D03*
X018174Y008400D03*
X023526Y011700D03*
X024274Y011700D03*
X029226Y016700D03*
X029974Y016700D03*
X031326Y017600D03*
X032074Y017600D03*
D15*
G36*
X012854Y015845D02*
X012873Y014767D01*
X012194Y014755D01*
X012175Y015833D01*
X012854Y015845D01*
G37*
G36*
X012806Y018645D02*
X012825Y017567D01*
X012146Y017555D01*
X012127Y018633D01*
X012806Y018645D01*
G37*
D16*
X026700Y014554D03*
X026700Y013846D03*
D17*
X009346Y008900D03*
X010054Y008900D03*
X011846Y008900D03*
X012554Y008900D03*
X012246Y011200D03*
X012954Y011200D03*
X011454Y018600D03*
X010746Y018600D03*
X024446Y013500D03*
X025154Y013500D03*
X028046Y013500D03*
X028754Y013500D03*
X029146Y014400D03*
X029854Y014400D03*
D18*
X014733Y011174D03*
X014733Y010426D03*
X013867Y010800D03*
D19*
X012237Y023805D03*
X012670Y023963D03*
X011804Y023963D03*
X011370Y024041D03*
X010937Y023963D03*
X010504Y024041D03*
X010071Y023963D03*
X009638Y023963D03*
D20*
X009327Y025085D03*
X014504Y025478D03*
D21*
X012201Y019907D03*
X009957Y019907D03*
D22*
X031038Y015724D03*
X031038Y015350D03*
X031038Y014976D03*
X032062Y014976D03*
X032062Y015724D03*
D23*
X029632Y010338D03*
X029768Y009562D03*
D24*
X029361Y012350D03*
X030739Y012350D03*
D25*
X032465Y012200D03*
X033135Y012200D03*
X033615Y013050D03*
X034285Y013050D03*
D26*
X025000Y015365D03*
X025000Y016035D03*
X030765Y021800D03*
X031435Y021800D03*
D27*
X029535Y018650D03*
X028865Y018650D03*
D28*
X024370Y024700D03*
X023230Y024700D03*
X021800Y024650D03*
X020800Y024750D03*
X019800Y024650D03*
X018400Y024650D03*
X017400Y024750D03*
X016400Y024650D03*
X007750Y021900D03*
X007650Y020900D03*
X007750Y019900D03*
X007550Y017700D03*
X007650Y016700D03*
X007550Y015700D03*
D29*
X019155Y021100D03*
X021045Y021100D03*
X022955Y020100D03*
X024845Y020100D03*
D30*
X007650Y022900D03*
X007650Y014700D03*
D31*
X028100Y014675D03*
X034100Y014675D03*
X034100Y019925D03*
X028100Y019925D03*
D32*
X029850Y020300D03*
X027100Y018300D03*
X027100Y017300D03*
X027100Y016300D03*
X030100Y013300D03*
X031100Y013300D03*
X032100Y013300D03*
X032350Y020300D03*
X032350Y022300D03*
X029850Y022300D03*
D33*
X033757Y017812D03*
X033757Y017556D03*
X033757Y017300D03*
X033757Y017044D03*
X033757Y016788D03*
D34*
X034800Y015725D03*
X034800Y018875D03*
D35*
X027100Y022300D03*
X005600Y024800D03*
X005600Y009800D03*
D36*
X005626Y013967D03*
X006374Y013967D03*
X006000Y014833D03*
X006274Y018067D03*
X005526Y018067D03*
X005900Y018933D03*
M02*
