%
M48
M72
T01C0.0130
T02C0.0276
T03C0.0350
T04C0.0354
T05C0.0400
T06C0.0550
T07C0.1300
%
T01
X11160Y8920
X12040Y9480
X11800Y9720
X11160Y9960
X10200Y9720
X8680Y9480
X8440Y9720
X6840Y10200
X7180Y11060
X6840Y12680
X6860Y14040
X7480Y14040
X8520Y14200
X8760Y14440
X9000Y13960
X10200Y13320
X10440Y11560
X11160Y11560
X11880Y11240
X13080Y11640
X14200Y11240
X15240Y11160
X15240Y9960
X15720Y9800
X13720Y9560
X14920Y12600
X14200Y13240
X13800Y13320
X14840Y13640
X14600Y13960
X14840Y14200
X13800Y14360
X13080Y15240
X13800Y16120
X14600Y15880
X14840Y15640
X16840Y16520
X17760Y17410
X18120Y17400
X18350Y16870
X18340Y16470
X18920Y16200
X18680Y15960
X17960Y15470
X19070Y14470
X19640Y14040
X19960Y14520
X20680Y13800
X21410Y13280
X22240Y12990
X22430Y12060
X21800Y11160
X23810Y10140
X24300Y10720
X25720Y10920
X26440Y10440
X28190Y12110
X27450Y12550
X26520Y13000
X27160Y13880
X28400Y13950
X27080Y15400
X28120Y16280
X28840Y16120
X29080Y15640
X29760Y16020
X31560Y15720
X32120Y15320
X32840Y15000
X33160Y14600
X32840Y13720
X33160Y12760
X32120Y10360
X29080Y9560
X28840Y9800
X24920Y12760
X24600Y12520
X23590Y12850
X21800Y14040
X21320Y15720
X21560Y16040
X21000Y16040
X20040Y15720
X19640Y15800
X22040Y16680
X22280Y18040
X21560Y18280
X21320Y17960
X20840Y17960
X19560Y18040
X19080Y18040
X17800Y18200
X17080Y19400
X16280Y20040
X17080Y20840
X17400Y21080
X17640Y20280
X18600Y20520
X18920Y19880
X19400Y19640
X20840Y20040
X21080Y20440
X21720Y20200
X21960Y19640
X23880Y20120
X23880Y21080
X21960Y21880
X21480Y21640
X19960Y21320
X18920Y22040
X17940Y23480
X16440Y21880
X16280Y21320
X14680Y21640
X14440Y21080
X14840Y20440
X13700Y20790
X13640Y19960
X13080Y19400
X12040Y19320
X12040Y18840
X13640Y18120
X14120Y18280
X14200Y18920
X14840Y18680
X13960Y17480
X10360Y17220
X10460Y15220
X6840Y16880
X6030Y17530
X6840Y18760
X7080Y19000
X7480Y19240
X7480Y18600
X7720Y18360
X9080Y19880
X8310Y20430
X8310Y21390
X8840Y23080
X9080Y23400
X9240Y23720
X10920Y23160
X10920Y24520
X13320Y23640
X14680Y23240
X13750Y21810
X18440Y25960
X20120Y24120
X22340Y23510
X28120Y18680
X29080Y18120
X31560Y18680
X33000Y19240
X33000Y17800
X32120Y16760
X31720Y21320
X29880Y21640
X29080Y22280
X24520Y17320
X24520Y15080
X24920Y14380
X18680Y13800
X17640Y13080
X15960Y13560
X15720Y13160
X15960Y12440
X18440Y11400
X18460Y10340
X18360Y8920
X20920Y8120
X4920Y14040
X5920Y21400
T02
X29632Y10338
X29768Y9562
T03
X30100Y13300
X31100Y13300
X32100Y13300
X27100Y16300
X27100Y17300
X27100Y18300
T04
X29850Y20300
X29850Y22300
X32350Y22300
X32350Y20300
T05
X24370Y24700
X23230Y24700
X21800Y24650
X20800Y24750
X19800Y24650
X18400Y24650
X17400Y24750
X16400Y24650
X7750Y21900
X7650Y22900
X7650Y20900
X7750Y19900
X7550Y17700
X7650Y16700
X7550Y15700
X7650Y14700
X7500Y13300
X7500Y12300
X8500Y12300
X9500Y12300
X9500Y13300
X8500Y13300
T06
X28100Y14675
X34100Y14675
X34100Y19925
X28100Y19925
T07
X27100Y22300
X5600Y24800
X5600Y9800
M30
