G75*
G70*
%OFA0B0*%
%FSLAX24Y24*%
%IPPOS*%
%LPD*%
%AMOC8*
5,1,8,0,0,1.08239X$1,22.5*
%
%ADD10C,0.0000*%
%ADD11OC8,0.0740*%
%ADD12R,0.0984X0.0591*%
%ADD13R,0.0400X0.0800*%
%ADD14C,0.0570*%
%ADD15C,0.0740*%
%ADD16R,0.0740X0.0740*%
%ADD17R,0.0787X0.0197*%
%ADD18C,0.0900*%
%ADD19C,0.0700*%
%ADD20C,0.0080*%
%ADD21C,0.0270*%
%ADD22C,0.0100*%
D10*
X007100Y007800D02*
X026100Y007800D01*
X036100Y016800D02*
X036050Y017302D01*
X035977Y017801D01*
X035879Y018296D01*
X035756Y018785D01*
X035610Y019268D01*
X035441Y019743D01*
X035248Y020209D01*
X035032Y020665D01*
X034795Y021110D01*
X034536Y021543D01*
X034256Y021963D01*
X033956Y022368D01*
X033636Y022758D01*
X033297Y023132D01*
X032941Y023489D01*
X032567Y023828D01*
X032178Y024148D01*
X031773Y024449D01*
X031353Y024729D01*
X030921Y024989D01*
X030476Y025227D01*
X030020Y025443D01*
X029554Y025636D01*
X029079Y025806D01*
X028597Y025953D01*
X028108Y026076D01*
X027613Y026175D01*
X027114Y026249D01*
X026612Y026299D01*
X026108Y026324D01*
X025604Y026324D01*
X025100Y026300D01*
X006600Y026300D01*
X004950Y024800D02*
X004952Y024850D01*
X004958Y024900D01*
X004968Y024950D01*
X004981Y024998D01*
X004998Y025046D01*
X005019Y025092D01*
X005043Y025136D01*
X005071Y025178D01*
X005102Y025218D01*
X005136Y025255D01*
X005173Y025290D01*
X005212Y025321D01*
X005253Y025350D01*
X005297Y025375D01*
X005343Y025397D01*
X005390Y025415D01*
X005438Y025429D01*
X005487Y025440D01*
X005537Y025447D01*
X005587Y025450D01*
X005638Y025449D01*
X005688Y025444D01*
X005738Y025435D01*
X005786Y025423D01*
X005834Y025406D01*
X005880Y025386D01*
X005925Y025363D01*
X005968Y025336D01*
X006008Y025306D01*
X006046Y025273D01*
X006081Y025237D01*
X006114Y025198D01*
X006143Y025157D01*
X006169Y025114D01*
X006192Y025069D01*
X006211Y025022D01*
X006226Y024974D01*
X006238Y024925D01*
X006246Y024875D01*
X006250Y024825D01*
X006250Y024775D01*
X006246Y024725D01*
X006238Y024675D01*
X006226Y024626D01*
X006211Y024578D01*
X006192Y024531D01*
X006169Y024486D01*
X006143Y024443D01*
X006114Y024402D01*
X006081Y024363D01*
X006046Y024327D01*
X006008Y024294D01*
X005968Y024264D01*
X005925Y024237D01*
X005880Y024214D01*
X005834Y024194D01*
X005786Y024177D01*
X005738Y024165D01*
X005688Y024156D01*
X005638Y024151D01*
X005587Y024150D01*
X005537Y024153D01*
X005487Y024160D01*
X005438Y024171D01*
X005390Y024185D01*
X005343Y024203D01*
X005297Y024225D01*
X005253Y024250D01*
X005212Y024279D01*
X005173Y024310D01*
X005136Y024345D01*
X005102Y024382D01*
X005071Y024422D01*
X005043Y024464D01*
X005019Y024508D01*
X004998Y024554D01*
X004981Y024602D01*
X004968Y024650D01*
X004958Y024700D01*
X004952Y024750D01*
X004950Y024800D01*
X004600Y024300D02*
X004600Y009800D01*
X004950Y009800D02*
X004952Y009850D01*
X004958Y009900D01*
X004968Y009950D01*
X004981Y009998D01*
X004998Y010046D01*
X005019Y010092D01*
X005043Y010136D01*
X005071Y010178D01*
X005102Y010218D01*
X005136Y010255D01*
X005173Y010290D01*
X005212Y010321D01*
X005253Y010350D01*
X005297Y010375D01*
X005343Y010397D01*
X005390Y010415D01*
X005438Y010429D01*
X005487Y010440D01*
X005537Y010447D01*
X005587Y010450D01*
X005638Y010449D01*
X005688Y010444D01*
X005738Y010435D01*
X005786Y010423D01*
X005834Y010406D01*
X005880Y010386D01*
X005925Y010363D01*
X005968Y010336D01*
X006008Y010306D01*
X006046Y010273D01*
X006081Y010237D01*
X006114Y010198D01*
X006143Y010157D01*
X006169Y010114D01*
X006192Y010069D01*
X006211Y010022D01*
X006226Y009974D01*
X006238Y009925D01*
X006246Y009875D01*
X006250Y009825D01*
X006250Y009775D01*
X006246Y009725D01*
X006238Y009675D01*
X006226Y009626D01*
X006211Y009578D01*
X006192Y009531D01*
X006169Y009486D01*
X006143Y009443D01*
X006114Y009402D01*
X006081Y009363D01*
X006046Y009327D01*
X006008Y009294D01*
X005968Y009264D01*
X005925Y009237D01*
X005880Y009214D01*
X005834Y009194D01*
X005786Y009177D01*
X005738Y009165D01*
X005688Y009156D01*
X005638Y009151D01*
X005587Y009150D01*
X005537Y009153D01*
X005487Y009160D01*
X005438Y009171D01*
X005390Y009185D01*
X005343Y009203D01*
X005297Y009225D01*
X005253Y009250D01*
X005212Y009279D01*
X005173Y009310D01*
X005136Y009345D01*
X005102Y009382D01*
X005071Y009422D01*
X005043Y009464D01*
X005019Y009508D01*
X004998Y009554D01*
X004981Y009602D01*
X004968Y009650D01*
X004958Y009700D01*
X004952Y009750D01*
X004950Y009800D01*
X004600Y009800D02*
X004614Y009693D01*
X004634Y009587D01*
X004658Y009482D01*
X004688Y009379D01*
X004722Y009277D01*
X004761Y009176D01*
X004805Y009078D01*
X004854Y008982D01*
X004907Y008888D01*
X004965Y008797D01*
X005026Y008708D01*
X005092Y008623D01*
X005162Y008541D01*
X005236Y008463D01*
X005313Y008388D01*
X005394Y008316D01*
X005478Y008249D01*
X005565Y008186D01*
X005656Y008127D01*
X005748Y008072D01*
X005844Y008022D01*
X005941Y007976D01*
X006041Y007935D01*
X006143Y007899D01*
X006246Y007868D01*
X006350Y007842D01*
X006456Y007821D01*
X006562Y007804D01*
X006670Y007793D01*
X006777Y007787D01*
X006885Y007786D01*
X006993Y007790D01*
X007100Y007800D01*
X026100Y007800D02*
X026555Y007775D01*
X027010Y007771D01*
X027465Y007790D01*
X027919Y007832D01*
X028370Y007895D01*
X028817Y007981D01*
X029260Y008088D01*
X029697Y008217D01*
X030127Y008368D01*
X030549Y008539D01*
X030962Y008731D01*
X031365Y008943D01*
X031758Y009174D01*
X032138Y009424D01*
X032506Y009693D01*
X032860Y009979D01*
X033200Y010283D01*
X033524Y010602D01*
X033833Y010938D01*
X034124Y011288D01*
X034398Y011651D01*
X034654Y012028D01*
X034891Y012417D01*
X035109Y012817D01*
X035306Y013228D01*
X035484Y013647D01*
X035640Y014075D01*
X035776Y014510D01*
X035889Y014951D01*
X035982Y015397D01*
X036052Y015847D01*
X036100Y016300D01*
X036100Y016800D01*
X026450Y022300D02*
X026452Y022350D01*
X026458Y022400D01*
X026468Y022450D01*
X026481Y022498D01*
X026498Y022546D01*
X026519Y022592D01*
X026543Y022636D01*
X026571Y022678D01*
X026602Y022718D01*
X026636Y022755D01*
X026673Y022790D01*
X026712Y022821D01*
X026753Y022850D01*
X026797Y022875D01*
X026843Y022897D01*
X026890Y022915D01*
X026938Y022929D01*
X026987Y022940D01*
X027037Y022947D01*
X027087Y022950D01*
X027138Y022949D01*
X027188Y022944D01*
X027238Y022935D01*
X027286Y022923D01*
X027334Y022906D01*
X027380Y022886D01*
X027425Y022863D01*
X027468Y022836D01*
X027508Y022806D01*
X027546Y022773D01*
X027581Y022737D01*
X027614Y022698D01*
X027643Y022657D01*
X027669Y022614D01*
X027692Y022569D01*
X027711Y022522D01*
X027726Y022474D01*
X027738Y022425D01*
X027746Y022375D01*
X027750Y022325D01*
X027750Y022275D01*
X027746Y022225D01*
X027738Y022175D01*
X027726Y022126D01*
X027711Y022078D01*
X027692Y022031D01*
X027669Y021986D01*
X027643Y021943D01*
X027614Y021902D01*
X027581Y021863D01*
X027546Y021827D01*
X027508Y021794D01*
X027468Y021764D01*
X027425Y021737D01*
X027380Y021714D01*
X027334Y021694D01*
X027286Y021677D01*
X027238Y021665D01*
X027188Y021656D01*
X027138Y021651D01*
X027087Y021650D01*
X027037Y021653D01*
X026987Y021660D01*
X026938Y021671D01*
X026890Y021685D01*
X026843Y021703D01*
X026797Y021725D01*
X026753Y021750D01*
X026712Y021779D01*
X026673Y021810D01*
X026636Y021845D01*
X026602Y021882D01*
X026571Y021922D01*
X026543Y021964D01*
X026519Y022008D01*
X026498Y022054D01*
X026481Y022102D01*
X026468Y022150D01*
X026458Y022200D01*
X026452Y022250D01*
X026450Y022300D01*
X006600Y026300D02*
X006505Y026298D01*
X006410Y026291D01*
X006315Y026280D01*
X006221Y026264D01*
X006128Y026244D01*
X006037Y026219D01*
X005946Y026190D01*
X005857Y026157D01*
X005769Y026119D01*
X005684Y026078D01*
X005600Y026032D01*
X005519Y025983D01*
X005440Y025929D01*
X005364Y025872D01*
X005290Y025811D01*
X005220Y025747D01*
X005153Y025680D01*
X005089Y025610D01*
X005028Y025536D01*
X004971Y025460D01*
X004917Y025381D01*
X004868Y025300D01*
X004822Y025216D01*
X004781Y025131D01*
X004743Y025043D01*
X004710Y024954D01*
X004681Y024863D01*
X004656Y024772D01*
X004636Y024679D01*
X004620Y024585D01*
X004609Y024490D01*
X004602Y024395D01*
X004600Y024300D01*
D11*
X007500Y013300D03*
X007500Y012300D03*
X008500Y012300D03*
X009500Y012300D03*
X009500Y013300D03*
X008500Y013300D03*
D12*
X008606Y010744D03*
X008606Y008956D03*
X011994Y008956D03*
X011994Y010744D03*
X017606Y010944D03*
X017606Y009156D03*
X020994Y009156D03*
X023106Y009156D03*
X023106Y010944D03*
X020994Y010944D03*
X026494Y010944D03*
X026494Y009156D03*
D13*
X015684Y008488D03*
X014684Y008488D03*
X013684Y008488D03*
X013716Y011112D03*
X014716Y011112D03*
X015716Y011112D03*
D14*
X029632Y010338D03*
X029768Y009562D03*
D15*
X024370Y024700D03*
X023230Y024700D03*
X021800Y024650D03*
X020800Y024750D03*
X019800Y024650D03*
X018400Y024650D03*
X017400Y024750D03*
X016400Y024650D03*
X007750Y021900D03*
X007650Y020900D03*
X007750Y019900D03*
X007550Y017700D03*
X007650Y016700D03*
X007550Y015700D03*
D16*
X007650Y014700D03*
X007650Y022900D03*
D17*
X020207Y020397D03*
X020207Y020082D03*
X020207Y019767D03*
X020207Y019452D03*
X020207Y019137D03*
X020207Y018822D03*
X020207Y018507D03*
X020207Y018193D03*
X020207Y017878D03*
X020207Y017563D03*
X020207Y017248D03*
X020207Y016933D03*
X020207Y016618D03*
X020207Y016303D03*
D18*
X028100Y014675D03*
X034100Y014675D03*
X034100Y019925D03*
X028100Y019925D03*
D19*
X029850Y020300D03*
X027100Y018300D03*
X027100Y017300D03*
X027100Y016300D03*
X030100Y013300D03*
X031100Y013300D03*
X032100Y013300D03*
X032350Y020300D03*
X032350Y022300D03*
X029850Y022300D03*
D20*
X029080Y022280D02*
X029080Y018120D01*
X028120Y018680D02*
X028120Y016280D01*
X028840Y016120D02*
X028840Y012520D01*
X028920Y012440D01*
X028920Y009880D01*
X028840Y009800D01*
X029080Y009560D02*
X029080Y012520D01*
X029000Y012600D01*
X029000Y015560D01*
X029080Y015640D01*
X029760Y016020D02*
X031560Y015720D01*
X032120Y015320D02*
X032120Y016760D01*
X032120Y018520D01*
X031720Y018920D01*
X031720Y021320D01*
X029880Y021640D02*
X029880Y020360D01*
X029850Y020300D01*
X031560Y018680D02*
X029760Y016020D01*
X032120Y015320D02*
X032120Y013320D01*
X032100Y013300D01*
X032120Y013240D01*
X032120Y010360D01*
X033160Y012760D02*
X033160Y014600D01*
X032840Y015000D02*
X032840Y013720D01*
X028840Y012520D02*
X028190Y012110D01*
X028080Y012730D02*
X027450Y012550D01*
X028080Y012730D02*
X028380Y013720D01*
X028400Y013950D01*
X027160Y013880D02*
X027080Y013960D01*
X027080Y015400D01*
X027080Y016280D01*
X027100Y016300D01*
X024920Y014380D02*
X024920Y012760D01*
X024600Y012520D02*
X024040Y012920D01*
X023590Y012850D01*
X022630Y013200D02*
X022430Y012060D01*
X021640Y011400D02*
X021390Y013280D01*
X021410Y013280D01*
X021390Y013280D02*
X021390Y013550D01*
X021560Y013880D01*
X021560Y016040D01*
X021480Y016120D01*
X021480Y017720D01*
X021560Y017800D01*
X021560Y018280D01*
X021560Y018600D01*
X021640Y018680D01*
X021640Y020120D01*
X021720Y020200D01*
X021480Y020440D02*
X021480Y021640D01*
X021960Y021880D02*
X021960Y019640D01*
X021240Y020200D02*
X021240Y018840D01*
X020920Y018520D01*
X020920Y018200D01*
X020280Y018200D01*
X020207Y018193D01*
X020207Y018507D02*
X020280Y018520D01*
X020680Y018520D01*
X021080Y018920D01*
X021080Y020440D01*
X021240Y020200D02*
X021480Y020440D01*
X020920Y019960D02*
X020840Y020040D01*
X020920Y019960D02*
X020920Y019480D01*
X020280Y019480D01*
X020207Y019452D01*
X020200Y019160D02*
X020207Y019137D01*
X020200Y019160D02*
X019400Y019160D01*
X019320Y019080D01*
X019320Y016760D01*
X019640Y016440D01*
X019640Y015800D01*
X019640Y014040D01*
X019960Y014520D02*
X019960Y015640D01*
X020040Y015720D01*
X020680Y016120D02*
X020680Y013800D01*
X021800Y014040D02*
X021800Y011160D01*
X021640Y011400D02*
X021560Y011320D01*
X021560Y010920D01*
X021000Y010920D01*
X020994Y010944D01*
X021560Y010920D02*
X023080Y010920D01*
X023106Y010944D01*
X023160Y010920D01*
X024300Y010720D01*
X023810Y010140D02*
X023560Y009240D01*
X023480Y009160D01*
X023160Y009160D01*
X023106Y009156D01*
X020994Y009156D02*
X020920Y009080D01*
X020920Y008120D01*
X018360Y008920D02*
X018360Y009080D01*
X018280Y009160D01*
X017640Y009160D01*
X017606Y009156D01*
X017560Y009160D01*
X016920Y009160D01*
X016840Y009240D01*
X016840Y016520D01*
X017760Y017410D02*
X017960Y015470D01*
X018440Y015800D02*
X018520Y015720D01*
X018520Y014040D01*
X018440Y013960D01*
X018440Y011400D01*
X017960Y010890D02*
X017240Y010920D01*
X017560Y010920D01*
X017606Y010944D01*
X017640Y011000D01*
X017640Y013080D01*
X018680Y013800D02*
X018680Y015960D01*
X018920Y015800D02*
X018920Y016200D01*
X018920Y015800D02*
X018840Y015720D01*
X018840Y014600D01*
X019070Y014470D01*
X018440Y015800D02*
X018340Y016470D01*
X018350Y016870D02*
X018600Y020520D01*
X019240Y020120D02*
X019240Y019880D01*
X019160Y019800D01*
X019160Y018120D01*
X019080Y018040D01*
X019480Y018120D02*
X019560Y018040D01*
X019480Y018120D02*
X019480Y018840D01*
X020200Y018840D01*
X020207Y018822D01*
X019400Y019160D02*
X019400Y019640D01*
X019400Y020040D01*
X019480Y020120D01*
X019480Y020840D01*
X019960Y021320D01*
X019960Y023960D01*
X020120Y024120D01*
X019800Y024650D02*
X019800Y021560D01*
X019720Y021480D01*
X019720Y021320D01*
X019320Y020920D01*
X019320Y020200D01*
X019240Y020120D01*
X019480Y020120D02*
X020200Y020120D01*
X020207Y020082D01*
X020280Y020120D01*
X020280Y020040D02*
X020207Y020082D01*
X020280Y020040D02*
X020280Y019800D01*
X020207Y019767D01*
X018920Y019880D02*
X018920Y022040D01*
X017960Y022320D02*
X018040Y021340D01*
X017640Y020280D01*
X017080Y020840D02*
X017080Y019400D01*
X016280Y020040D02*
X016280Y021320D01*
X016440Y021880D02*
X016440Y024600D01*
X016400Y024650D01*
X017400Y024750D02*
X017400Y021080D01*
X017960Y022320D02*
X017860Y022900D01*
X017940Y023480D01*
X018400Y024650D02*
X018440Y024680D01*
X018440Y025960D01*
X014680Y023240D02*
X014680Y021640D01*
X014680Y020920D01*
X014600Y020840D01*
X014600Y018520D01*
X014520Y018440D01*
X014520Y015960D01*
X014600Y015880D01*
X014520Y015960D02*
X014520Y014040D01*
X014600Y013960D01*
X014840Y014200D02*
X014840Y015640D01*
X013880Y016040D02*
X013800Y016120D01*
X013880Y016040D02*
X013880Y014440D01*
X013800Y014360D01*
X013240Y015000D02*
X013320Y015080D01*
X013320Y015400D01*
X013240Y015480D01*
X013240Y019160D01*
X013320Y019240D01*
X013320Y023640D01*
X010920Y023160D02*
X010920Y024520D01*
X009320Y023640D02*
X009320Y023240D01*
X009240Y023160D01*
X009240Y020120D01*
X009320Y020040D01*
X009320Y019720D01*
X008680Y019080D01*
X008680Y014520D01*
X008760Y014440D01*
X008520Y014200D02*
X008520Y019720D01*
X008920Y020120D01*
X008920Y023000D01*
X008840Y023080D01*
X009080Y023400D02*
X009080Y019880D01*
X008310Y020430D02*
X008310Y021390D01*
X007640Y022520D02*
X007080Y021960D01*
X007080Y019000D01*
X007080Y015480D01*
X007640Y014920D01*
X007640Y014760D01*
X007650Y014700D01*
X007480Y014040D02*
X007480Y013320D01*
X007500Y013300D01*
X006840Y012680D02*
X006840Y010200D01*
X007180Y011060D02*
X007480Y012280D01*
X007500Y012300D01*
X008500Y012300D02*
X008520Y012360D01*
X008520Y012600D01*
X009000Y013080D01*
X009000Y013960D01*
X008520Y014200D02*
X008520Y013320D01*
X008500Y013300D01*
X009480Y012280D02*
X009500Y012300D01*
X009480Y012280D02*
X009480Y010920D01*
X009320Y010760D01*
X008680Y010760D01*
X008606Y010744D01*
X008680Y010680D01*
X008680Y009480D01*
X008440Y009720D02*
X008440Y008920D01*
X008600Y008920D01*
X008606Y008956D01*
X010200Y009720D02*
X010200Y013320D01*
X010360Y013080D02*
X010360Y011640D01*
X010440Y011560D01*
X011160Y011560D02*
X011160Y009960D01*
X011160Y008920D01*
X011800Y008920D02*
X011800Y009720D01*
X012040Y009480D02*
X012040Y010680D01*
X011994Y010744D01*
X011960Y010680D01*
X011880Y010760D01*
X011880Y011240D01*
X013080Y011640D02*
X013080Y015240D01*
X013080Y019400D01*
X013640Y019960D02*
X013640Y018120D01*
X014120Y018280D02*
X014200Y018200D01*
X014200Y018920D01*
X014440Y018600D02*
X014440Y021080D01*
X014840Y020440D02*
X014760Y020360D01*
X014760Y018760D01*
X014840Y018680D01*
X014440Y018600D02*
X014360Y018520D01*
X014360Y013480D01*
X014680Y013160D01*
X014680Y011160D01*
X014716Y011112D01*
X015240Y011160D02*
X015240Y009960D01*
X015240Y009800D01*
X014680Y009240D01*
X014680Y008520D01*
X014684Y008488D01*
X013720Y008520D02*
X013684Y008488D01*
X013720Y008520D02*
X013720Y009560D01*
X015720Y009800D02*
X015720Y008520D01*
X015684Y008488D01*
X015720Y009800D02*
X015720Y011080D01*
X015716Y011112D01*
X015720Y011160D01*
X015720Y013160D01*
X015960Y013560D02*
X015960Y012440D01*
X014920Y012600D02*
X014840Y012680D01*
X014840Y013640D01*
X014200Y013240D02*
X014200Y018200D01*
X013960Y017480D02*
X014040Y017400D01*
X014040Y013560D01*
X013800Y013320D01*
X014200Y013240D02*
X014200Y011240D01*
X013720Y011160D02*
X013716Y011112D01*
X013720Y011160D02*
X013720Y011880D01*
X013240Y012360D01*
X013240Y015000D01*
X010540Y015140D02*
X010440Y013160D01*
X010360Y013080D01*
X010540Y015140D02*
X010460Y015220D01*
X010360Y017220D01*
X012040Y018840D02*
X012040Y019320D01*
X013700Y020790D02*
X013750Y021810D01*
X009320Y023640D02*
X009240Y023720D01*
X007650Y022900D02*
X007640Y022840D01*
X007640Y022520D01*
X005920Y021400D02*
X005240Y020870D01*
X005290Y015220D01*
X004920Y014040D01*
X006280Y014520D02*
X006030Y017530D01*
X006840Y016880D02*
X006840Y018760D01*
X007480Y018600D02*
X007480Y019240D01*
X007720Y019880D02*
X007750Y019900D01*
X007720Y019880D02*
X007720Y018360D01*
X006280Y014520D02*
X006860Y014040D01*
X011800Y008920D02*
X011960Y008920D01*
X011994Y008956D01*
X017960Y010890D02*
X018460Y010340D01*
X022240Y012990D02*
X022040Y016680D01*
X022680Y017420D02*
X023000Y016440D01*
X022800Y013980D01*
X022630Y013200D01*
X024520Y015080D02*
X024520Y017320D01*
X022680Y017420D02*
X022280Y018040D01*
X021320Y017960D02*
X021320Y015720D01*
X021000Y016040D02*
X020920Y016120D01*
X020920Y017240D01*
X020280Y017240D01*
X020207Y017248D01*
X020280Y017320D01*
X020280Y017560D01*
X020207Y017563D01*
X020207Y017878D02*
X020280Y017880D01*
X020760Y017880D01*
X020840Y017960D01*
X020680Y016920D02*
X020280Y016920D01*
X020207Y016933D01*
X020207Y016618D02*
X020200Y016600D01*
X019800Y016600D01*
X019640Y016440D01*
X020680Y016120D02*
X020760Y016200D01*
X020760Y016760D01*
X020680Y016840D01*
X020680Y016920D01*
X018200Y017480D02*
X018200Y017800D01*
X017800Y018200D01*
X018200Y017480D02*
X018120Y017400D01*
X023880Y020120D02*
X023880Y021080D01*
X022340Y023510D02*
X023240Y024680D01*
X023230Y024700D01*
X033000Y019240D02*
X033000Y017800D01*
X026520Y013000D02*
X026520Y011000D01*
X026494Y010944D01*
X026440Y010920D01*
X025720Y010920D01*
X026440Y010440D02*
X026440Y009160D01*
X026494Y009156D01*
D21*
X026440Y010440D03*
X025720Y010920D03*
X024300Y010720D03*
X023810Y010140D03*
X021800Y011160D03*
X022430Y012060D03*
X022240Y012990D03*
X021410Y013280D03*
X020680Y013800D03*
X019960Y014520D03*
X019640Y014040D03*
X019070Y014470D03*
X018680Y013800D03*
X017640Y013080D03*
X015960Y013560D03*
X015720Y013160D03*
X015960Y012440D03*
X014920Y012600D03*
X014200Y013240D03*
X013800Y013320D03*
X014840Y013640D03*
X014600Y013960D03*
X014840Y014200D03*
X013800Y014360D03*
X013080Y015240D03*
X013800Y016120D03*
X014600Y015880D03*
X014840Y015640D03*
X016840Y016520D03*
X017760Y017410D03*
X018120Y017400D03*
X018350Y016870D03*
X018340Y016470D03*
X018920Y016200D03*
X018680Y015960D03*
X017960Y015470D03*
X019640Y015800D03*
X020040Y015720D03*
X021000Y016040D03*
X021320Y015720D03*
X021560Y016040D03*
X022040Y016680D03*
X022280Y018040D03*
X021560Y018280D03*
X021320Y017960D03*
X020840Y017960D03*
X019560Y018040D03*
X019080Y018040D03*
X017800Y018200D03*
X017080Y019400D03*
X016280Y020040D03*
X017080Y020840D03*
X017400Y021080D03*
X017640Y020280D03*
X018600Y020520D03*
X018920Y019880D03*
X019400Y019640D03*
X020840Y020040D03*
X021080Y020440D03*
X021720Y020200D03*
X021960Y019640D03*
X023880Y020120D03*
X023880Y021080D03*
X021960Y021880D03*
X021480Y021640D03*
X019960Y021320D03*
X018920Y022040D03*
X017940Y023480D03*
X016440Y021880D03*
X016280Y021320D03*
X014680Y021640D03*
X014440Y021080D03*
X014840Y020440D03*
X013700Y020790D03*
X013640Y019960D03*
X013080Y019400D03*
X012040Y019320D03*
X012040Y018840D03*
X013640Y018120D03*
X014120Y018280D03*
X014200Y018920D03*
X014840Y018680D03*
X013960Y017480D03*
X010360Y017220D03*
X010460Y015220D03*
X008760Y014440D03*
X008520Y014200D03*
X009000Y013960D03*
X010200Y013320D03*
X010440Y011560D03*
X011160Y011560D03*
X011880Y011240D03*
X013080Y011640D03*
X014200Y011240D03*
X015240Y011160D03*
X015240Y009960D03*
X015720Y009800D03*
X013720Y009560D03*
X012040Y009480D03*
X011800Y009720D03*
X011160Y009960D03*
X010200Y009720D03*
X011160Y008920D03*
X008680Y009480D03*
X008440Y009720D03*
X006840Y010200D03*
X007180Y011060D03*
X006840Y012680D03*
X006860Y014040D03*
X007480Y014040D03*
X004920Y014040D03*
X006840Y016880D03*
X006030Y017530D03*
X006840Y018760D03*
X007080Y019000D03*
X007480Y019240D03*
X007480Y018600D03*
X007720Y018360D03*
X009080Y019880D03*
X008310Y020430D03*
X008310Y021390D03*
X008840Y023080D03*
X009080Y023400D03*
X009240Y023720D03*
X010920Y023160D03*
X010920Y024520D03*
X013320Y023640D03*
X014680Y023240D03*
X013750Y021810D03*
X018440Y025960D03*
X020120Y024120D03*
X022340Y023510D03*
X028120Y018680D03*
X029080Y018120D03*
X028840Y016120D03*
X029080Y015640D03*
X029760Y016020D03*
X028120Y016280D03*
X027080Y015400D03*
X028400Y013950D03*
X027160Y013880D03*
X026520Y013000D03*
X027450Y012550D03*
X028190Y012110D03*
X028840Y009800D03*
X029080Y009560D03*
X032120Y010360D03*
X033160Y012760D03*
X032840Y013720D03*
X033160Y014600D03*
X032840Y015000D03*
X032120Y015320D03*
X031560Y015720D03*
X032120Y016760D03*
X033000Y017800D03*
X031560Y018680D03*
X033000Y019240D03*
X031720Y021320D03*
X029880Y021640D03*
X029080Y022280D03*
X024520Y017320D03*
X024520Y015080D03*
X024920Y014380D03*
X024920Y012760D03*
X024600Y012520D03*
X023590Y012850D03*
X021800Y014040D03*
X018440Y011400D03*
X018460Y010340D03*
X018360Y008920D03*
X020920Y008120D03*
X005920Y021400D03*
D22*
X005452Y021590D02*
X004970Y021590D01*
X004970Y021492D02*
X005370Y021492D01*
X005431Y021539D02*
X005030Y021226D01*
X005005Y021216D01*
X004970Y021180D01*
X004970Y023849D01*
X005076Y023772D01*
X005419Y023660D01*
X005781Y023660D01*
X006124Y023772D01*
X006416Y023984D01*
X006628Y024276D01*
X006740Y024619D01*
X006740Y024981D01*
X006628Y025324D01*
X006416Y025616D01*
X006124Y025828D01*
X006080Y025843D01*
X006417Y025920D01*
X006600Y025930D01*
X017935Y025930D01*
X017935Y025860D01*
X018012Y025674D01*
X018030Y025656D01*
X018030Y025298D01*
X017981Y025277D01*
X017950Y025247D01*
X017819Y025377D01*
X017547Y025490D01*
X017253Y025490D01*
X016981Y025377D01*
X016850Y025247D01*
X016819Y025277D01*
X016547Y025390D01*
X016253Y025390D01*
X015981Y025277D01*
X015773Y025069D01*
X015660Y024797D01*
X015660Y024503D01*
X015773Y024231D01*
X015981Y024023D01*
X016030Y024002D01*
X016030Y022184D01*
X016012Y022166D01*
X015935Y021980D01*
X015935Y021780D01*
X015961Y021716D01*
X015852Y021606D01*
X015775Y021420D01*
X015775Y021220D01*
X015852Y021034D01*
X015870Y021016D01*
X015870Y020344D01*
X015852Y020326D01*
X015775Y020140D01*
X015775Y019940D01*
X015852Y019754D01*
X015994Y019612D01*
X016180Y019535D01*
X016380Y019535D01*
X016566Y019612D01*
X016670Y019716D01*
X016670Y019704D01*
X016652Y019686D01*
X016575Y019500D01*
X016575Y019300D01*
X016652Y019114D01*
X016794Y018972D01*
X016980Y018895D01*
X017180Y018895D01*
X017366Y018972D01*
X017508Y019114D01*
X017585Y019300D01*
X017585Y019500D01*
X017508Y019686D01*
X017490Y019704D01*
X017490Y019796D01*
X017540Y019775D01*
X017740Y019775D01*
X017926Y019852D01*
X018068Y019994D01*
X018145Y020180D01*
X018145Y020299D01*
X018170Y020239D01*
X018060Y018639D01*
X017900Y018705D01*
X017700Y018705D01*
X017514Y018628D01*
X017372Y018486D01*
X017295Y018300D01*
X017295Y018100D01*
X017372Y017914D01*
X017514Y017772D01*
X017700Y017695D01*
X017701Y017695D01*
X017692Y017686D01*
X017615Y017500D01*
X017615Y017300D01*
X017692Y017114D01*
X017834Y016972D01*
X017845Y016967D01*
X017845Y016770D01*
X017881Y016682D01*
X017835Y016570D01*
X017835Y016370D01*
X017912Y016184D01*
X017978Y016118D01*
X018030Y015770D01*
X018030Y015718D01*
X018042Y015690D01*
X018047Y015659D01*
X018073Y015615D01*
X018092Y015568D01*
X018110Y015550D01*
X018110Y014210D01*
X018092Y014192D01*
X018030Y014042D01*
X018030Y011704D01*
X018012Y011686D01*
X017935Y011500D01*
X017935Y011389D01*
X017656Y011389D01*
X017656Y010994D01*
X017556Y010994D01*
X017556Y011389D01*
X017250Y011389D01*
X017250Y016216D01*
X017268Y016234D01*
X017345Y016420D01*
X017345Y016620D01*
X017268Y016806D01*
X017126Y016948D01*
X016940Y017025D01*
X016740Y017025D01*
X016554Y016948D01*
X016412Y016806D01*
X016335Y016620D01*
X016335Y016420D01*
X016412Y016234D01*
X016430Y016216D01*
X016430Y013745D01*
X016388Y013846D01*
X016246Y013988D01*
X016060Y014065D01*
X015860Y014065D01*
X015674Y013988D01*
X015532Y013846D01*
X015455Y013660D01*
X015455Y013597D01*
X015434Y013588D01*
X015316Y013471D01*
X015345Y013540D01*
X015345Y013740D01*
X015271Y013920D01*
X015345Y014100D01*
X015345Y014300D01*
X015268Y014486D01*
X015250Y014504D01*
X015250Y015336D01*
X015268Y015354D01*
X015345Y015540D01*
X015345Y015740D01*
X015268Y015926D01*
X015126Y016068D01*
X015057Y016097D01*
X015028Y016166D01*
X014930Y016264D01*
X014930Y018175D01*
X014940Y018175D01*
X015126Y018252D01*
X015268Y018394D01*
X015345Y018580D01*
X015345Y018780D01*
X015268Y018966D01*
X015170Y019064D01*
X015170Y020056D01*
X015268Y020154D01*
X015345Y020340D01*
X015345Y020540D01*
X015268Y020726D01*
X015126Y020868D01*
X015090Y020883D01*
X015090Y021336D01*
X015108Y021354D01*
X015185Y021540D01*
X015185Y021740D01*
X015108Y021926D01*
X015090Y021944D01*
X015090Y022936D01*
X015108Y022954D01*
X015185Y023140D01*
X015185Y023340D01*
X015108Y023526D01*
X014966Y023668D01*
X014780Y023745D01*
X014580Y023745D01*
X014394Y023668D01*
X014252Y023526D01*
X014175Y023340D01*
X014175Y023140D01*
X014252Y022954D01*
X014270Y022936D01*
X014270Y021944D01*
X014252Y021926D01*
X014250Y021922D01*
X014178Y022096D01*
X014036Y022238D01*
X013850Y022315D01*
X013730Y022315D01*
X013730Y023336D01*
X013748Y023354D01*
X013825Y023540D01*
X013825Y023740D01*
X013748Y023926D01*
X013606Y024068D01*
X013420Y024145D01*
X013220Y024145D01*
X013034Y024068D01*
X012892Y023926D01*
X012815Y023740D01*
X012815Y023540D01*
X012892Y023354D01*
X012910Y023336D01*
X012910Y019876D01*
X012794Y019828D01*
X012652Y019686D01*
X012575Y019500D01*
X012575Y019300D01*
X012652Y019114D01*
X012670Y019096D01*
X012670Y015544D01*
X012652Y015526D01*
X012575Y015340D01*
X012575Y015140D01*
X012652Y014954D01*
X012670Y014936D01*
X012670Y011944D01*
X012652Y011926D01*
X012575Y011740D01*
X011992Y011740D01*
X011980Y011745D02*
X011780Y011745D01*
X011652Y011692D01*
X011588Y011846D01*
X011446Y011988D01*
X011260Y012065D01*
X011060Y012065D01*
X010874Y011988D01*
X010800Y011914D01*
X010770Y011944D01*
X010770Y012906D01*
X010775Y012911D01*
X010780Y012920D01*
X010788Y012928D01*
X010815Y012994D01*
X010845Y013058D01*
X010846Y013069D01*
X010850Y013078D01*
X010850Y013150D01*
X010946Y015049D01*
X010950Y015058D01*
X010950Y015083D01*
X010965Y015120D01*
X010965Y015320D01*
X010888Y015506D01*
X010855Y015540D01*
X010785Y016931D01*
X010788Y016934D01*
X010865Y017120D01*
X010865Y017320D01*
X010788Y017506D01*
X010646Y017648D01*
X010460Y017725D01*
X010260Y017725D01*
X010074Y017648D01*
X009932Y017506D01*
X009855Y017320D01*
X009855Y017120D01*
X009932Y016934D01*
X009965Y016900D01*
X010035Y015509D01*
X010032Y015506D01*
X009955Y015320D01*
X009955Y015120D01*
X010032Y014934D01*
X010115Y014851D01*
X010062Y013810D01*
X010044Y013802D01*
X009807Y014040D01*
X009505Y014040D01*
X009505Y014060D01*
X009428Y014246D01*
X009286Y014388D01*
X009265Y014397D01*
X009265Y014540D01*
X009188Y014726D01*
X009090Y014824D01*
X009090Y018910D01*
X009668Y019488D01*
X009730Y019638D01*
X009730Y020122D01*
X009668Y020272D01*
X009650Y020290D01*
X009650Y022990D01*
X009668Y023008D01*
X009730Y023158D01*
X009730Y023583D01*
X009745Y023620D01*
X009745Y023820D01*
X009668Y024006D01*
X009526Y024148D01*
X009340Y024225D01*
X009140Y024225D01*
X008954Y024148D01*
X008812Y024006D01*
X008735Y023820D01*
X008735Y023620D01*
X008749Y023585D01*
X008740Y023585D01*
X008554Y023508D01*
X008412Y023366D01*
X008390Y023313D01*
X008390Y023344D01*
X008334Y023480D01*
X008230Y023584D01*
X008094Y023640D01*
X007206Y023640D01*
X007070Y023584D01*
X006966Y023480D01*
X006910Y023344D01*
X006910Y022456D01*
X006935Y022395D01*
X006848Y022308D01*
X006732Y022192D01*
X006670Y022042D01*
X006670Y019304D01*
X006652Y019286D01*
X006623Y019217D01*
X006554Y019188D01*
X006412Y019046D01*
X006335Y018860D01*
X006335Y018660D01*
X006412Y018474D01*
X006430Y018456D01*
X006430Y017184D01*
X006412Y017166D01*
X006335Y016980D01*
X006335Y016780D01*
X006412Y016594D01*
X006554Y016452D01*
X006670Y016404D01*
X006670Y015398D01*
X006732Y015248D01*
X006910Y015070D01*
X006910Y014256D01*
X006966Y014120D01*
X006975Y014112D01*
X006975Y013940D01*
X007010Y013856D01*
X006760Y013607D01*
X006760Y012993D01*
X006953Y012800D01*
X006760Y012607D01*
X006760Y011993D01*
X006942Y011811D01*
X006853Y011447D01*
X006752Y011346D01*
X006675Y011160D01*
X006675Y010960D01*
X006752Y010774D01*
X006894Y010632D01*
X007080Y010555D01*
X007280Y010555D01*
X007466Y010632D01*
X007608Y010774D01*
X007685Y010960D01*
X007685Y011160D01*
X007649Y011248D01*
X007800Y011248D01*
X007801Y011249D02*
X007744Y011113D01*
X007744Y010375D01*
X007801Y010239D01*
X007905Y010135D01*
X008041Y010078D01*
X008084Y010078D01*
X008012Y010006D01*
X007935Y009820D01*
X007935Y009620D01*
X007950Y009584D01*
X007905Y009565D01*
X007801Y009461D01*
X007744Y009325D01*
X007744Y008587D01*
X007801Y008451D01*
X007905Y008347D01*
X008041Y008291D01*
X009172Y008291D01*
X009308Y008347D01*
X009412Y008451D01*
X009468Y008587D01*
X009468Y009325D01*
X009412Y009461D01*
X009308Y009565D01*
X009172Y009622D01*
X009168Y009622D01*
X009108Y009766D01*
X009090Y009784D01*
X009090Y010078D01*
X009172Y010078D01*
X009308Y010135D01*
X009412Y010239D01*
X009468Y010375D01*
X009468Y010378D01*
X009552Y010412D01*
X009668Y010528D01*
X009790Y010650D01*
X009790Y010024D01*
X009772Y010006D01*
X009695Y009820D01*
X009695Y009620D01*
X009772Y009434D01*
X009914Y009292D01*
X010100Y009215D01*
X010300Y009215D01*
X010486Y009292D01*
X010628Y009434D01*
X010705Y009620D01*
X010705Y009739D01*
X010732Y009674D01*
X010750Y009656D01*
X010750Y009224D01*
X010732Y009206D01*
X010655Y009020D01*
X010655Y008820D01*
X010732Y008634D01*
X010874Y008492D01*
X011060Y008415D01*
X011224Y008415D01*
X011292Y008347D01*
X011428Y008291D01*
X012559Y008291D01*
X012695Y008347D01*
X012799Y008451D01*
X012856Y008587D01*
X012856Y009325D01*
X012799Y009461D01*
X012695Y009565D01*
X012559Y009622D01*
X012528Y009622D01*
X012468Y009766D01*
X012450Y009784D01*
X012450Y010078D01*
X012559Y010078D01*
X012695Y010135D01*
X012799Y010239D01*
X012856Y010375D01*
X012856Y011113D01*
X012819Y011202D01*
X012980Y011135D01*
X013146Y011135D01*
X013146Y010639D01*
X013202Y010503D01*
X013306Y010399D01*
X013442Y010342D01*
X013989Y010342D01*
X014125Y010399D01*
X014216Y010489D01*
X014306Y010399D01*
X014442Y010342D01*
X014830Y010342D01*
X014830Y010264D01*
X014812Y010246D01*
X014735Y010060D01*
X014735Y009875D01*
X014448Y009588D01*
X014448Y009588D01*
X014332Y009472D01*
X014270Y009322D01*
X014270Y009197D01*
X014184Y009111D01*
X014130Y009165D01*
X014130Y009256D01*
X014148Y009274D01*
X014225Y009460D01*
X014225Y009660D01*
X014148Y009846D01*
X014006Y009988D01*
X013820Y010065D01*
X013620Y010065D01*
X013434Y009988D01*
X013292Y009846D01*
X013215Y009660D01*
X013215Y009460D01*
X013292Y009274D01*
X013310Y009256D01*
X013310Y009216D01*
X013275Y009201D01*
X013171Y009097D01*
X013114Y008961D01*
X013114Y008170D01*
X007153Y008170D01*
X007132Y008176D01*
X007080Y008170D01*
X007026Y008170D01*
X007015Y008165D01*
X006847Y008156D01*
X006426Y008204D01*
X006026Y008345D01*
X005667Y008571D01*
X005578Y008660D01*
X005781Y008660D01*
X006124Y008772D01*
X006416Y008984D01*
X006628Y009276D01*
X006740Y009619D01*
X006740Y009981D01*
X006628Y010324D01*
X006416Y010616D01*
X006124Y010828D01*
X005781Y010940D01*
X005419Y010940D01*
X005076Y010828D01*
X004970Y010751D01*
X004970Y013535D01*
X005020Y013535D01*
X005206Y013612D01*
X005348Y013754D01*
X005425Y013940D01*
X005425Y014140D01*
X005400Y014201D01*
X005676Y015082D01*
X005701Y015142D01*
X005701Y015159D01*
X005706Y015175D01*
X005700Y015240D01*
X005652Y020671D01*
X005939Y020895D01*
X006020Y020895D01*
X006206Y020972D01*
X006348Y021114D01*
X006425Y021300D01*
X006425Y021500D01*
X006348Y021686D01*
X006206Y021828D01*
X006020Y021905D01*
X005820Y021905D01*
X005634Y021828D01*
X005492Y021686D01*
X005431Y021539D01*
X005494Y021689D02*
X004970Y021689D01*
X004970Y021787D02*
X005593Y021787D01*
X005773Y021886D02*
X004970Y021886D01*
X004970Y021984D02*
X006670Y021984D01*
X006670Y021886D02*
X006067Y021886D01*
X006247Y021787D02*
X006670Y021787D01*
X006670Y021689D02*
X006346Y021689D01*
X006388Y021590D02*
X006670Y021590D01*
X006670Y021492D02*
X006425Y021492D01*
X006425Y021393D02*
X006670Y021393D01*
X006670Y021295D02*
X006423Y021295D01*
X006382Y021196D02*
X006670Y021196D01*
X006670Y021098D02*
X006332Y021098D01*
X006233Y020999D02*
X006670Y020999D01*
X006670Y020901D02*
X006034Y020901D01*
X005820Y020802D02*
X006670Y020802D01*
X006670Y020704D02*
X005693Y020704D01*
X005652Y020605D02*
X006670Y020605D01*
X006670Y020507D02*
X005653Y020507D01*
X005654Y020408D02*
X006670Y020408D01*
X006670Y020310D02*
X005655Y020310D01*
X005656Y020211D02*
X006670Y020211D01*
X006670Y020113D02*
X005657Y020113D01*
X005658Y020014D02*
X006670Y020014D01*
X006670Y019916D02*
X005658Y019916D01*
X005659Y019817D02*
X006670Y019817D01*
X006670Y019719D02*
X005660Y019719D01*
X005661Y019620D02*
X006670Y019620D01*
X006670Y019522D02*
X005662Y019522D01*
X005663Y019423D02*
X006670Y019423D01*
X006670Y019325D02*
X005664Y019325D01*
X005665Y019226D02*
X006627Y019226D01*
X006493Y019128D02*
X005665Y019128D01*
X005666Y019029D02*
X006405Y019029D01*
X006364Y018931D02*
X005667Y018931D01*
X005668Y018832D02*
X006335Y018832D01*
X006335Y018734D02*
X005669Y018734D01*
X005670Y018635D02*
X006345Y018635D01*
X006386Y018537D02*
X005671Y018537D01*
X005672Y018438D02*
X006430Y018438D01*
X006430Y018340D02*
X005672Y018340D01*
X005673Y018241D02*
X006430Y018241D01*
X006430Y018143D02*
X005674Y018143D01*
X005675Y018044D02*
X006430Y018044D01*
X006430Y017946D02*
X005676Y017946D01*
X005677Y017847D02*
X006430Y017847D01*
X006430Y017749D02*
X005678Y017749D01*
X005679Y017650D02*
X006430Y017650D01*
X006430Y017552D02*
X005679Y017552D01*
X005680Y017453D02*
X006430Y017453D01*
X006430Y017355D02*
X005681Y017355D01*
X005682Y017256D02*
X006430Y017256D01*
X006408Y017158D02*
X005683Y017158D01*
X005684Y017059D02*
X006368Y017059D01*
X006335Y016961D02*
X005685Y016961D01*
X005685Y016862D02*
X006335Y016862D01*
X006342Y016764D02*
X005686Y016764D01*
X005687Y016665D02*
X006382Y016665D01*
X006439Y016567D02*
X005688Y016567D01*
X005689Y016468D02*
X006538Y016468D01*
X006670Y016370D02*
X005690Y016370D01*
X005691Y016271D02*
X006670Y016271D01*
X006670Y016173D02*
X005692Y016173D01*
X005692Y016074D02*
X006670Y016074D01*
X006670Y015976D02*
X005693Y015976D01*
X005694Y015877D02*
X006670Y015877D01*
X006670Y015779D02*
X005695Y015779D01*
X005696Y015680D02*
X006670Y015680D01*
X006670Y015582D02*
X005697Y015582D01*
X005698Y015483D02*
X006670Y015483D01*
X006676Y015385D02*
X005699Y015385D01*
X005699Y015286D02*
X006717Y015286D01*
X006793Y015188D02*
X005705Y015188D01*
X005679Y015089D02*
X006891Y015089D01*
X006910Y014991D02*
X005648Y014991D01*
X005617Y014892D02*
X006910Y014892D01*
X006910Y014794D02*
X005586Y014794D01*
X005555Y014695D02*
X006910Y014695D01*
X006910Y014597D02*
X005524Y014597D01*
X005493Y014498D02*
X006910Y014498D01*
X006910Y014400D02*
X005462Y014400D01*
X005432Y014301D02*
X006910Y014301D01*
X006932Y014203D02*
X005401Y014203D01*
X005425Y014104D02*
X006975Y014104D01*
X006975Y014006D02*
X005425Y014006D01*
X005412Y013907D02*
X006988Y013907D01*
X006962Y013809D02*
X005371Y013809D01*
X005304Y013710D02*
X006863Y013710D01*
X006765Y013612D02*
X005205Y013612D01*
X004970Y013513D02*
X006760Y013513D01*
X006760Y013415D02*
X004970Y013415D01*
X004970Y013316D02*
X006760Y013316D01*
X006760Y013218D02*
X004970Y013218D01*
X004970Y013119D02*
X006760Y013119D01*
X006760Y013021D02*
X004970Y013021D01*
X004970Y012922D02*
X006831Y012922D01*
X006930Y012824D02*
X004970Y012824D01*
X004970Y012725D02*
X006878Y012725D01*
X006780Y012627D02*
X004970Y012627D01*
X004970Y012528D02*
X006760Y012528D01*
X006760Y012430D02*
X004970Y012430D01*
X004970Y012331D02*
X006760Y012331D01*
X006760Y012233D02*
X004970Y012233D01*
X004970Y012134D02*
X006760Y012134D01*
X006760Y012036D02*
X004970Y012036D01*
X004970Y011937D02*
X006816Y011937D01*
X006915Y011839D02*
X004970Y011839D01*
X004970Y011740D02*
X006925Y011740D01*
X006901Y011642D02*
X004970Y011642D01*
X004970Y011543D02*
X006877Y011543D01*
X006850Y011445D02*
X004970Y011445D01*
X004970Y011346D02*
X006752Y011346D01*
X006711Y011248D02*
X004970Y011248D01*
X004970Y011149D02*
X006675Y011149D01*
X006675Y011051D02*
X004970Y011051D01*
X004970Y010952D02*
X006678Y010952D01*
X006719Y010854D02*
X006047Y010854D01*
X006124Y010828D02*
X006124Y010828D01*
X006225Y010755D02*
X006771Y010755D01*
X006869Y010657D02*
X006361Y010657D01*
X006416Y010616D02*
X006416Y010616D01*
X006416Y010616D01*
X006458Y010558D02*
X007072Y010558D01*
X007288Y010558D02*
X007744Y010558D01*
X007744Y010460D02*
X006530Y010460D01*
X006602Y010361D02*
X007750Y010361D01*
X007791Y010263D02*
X006648Y010263D01*
X006628Y010324D02*
X006628Y010324D01*
X006680Y010164D02*
X007875Y010164D01*
X008071Y010066D02*
X006712Y010066D01*
X006740Y009967D02*
X007996Y009967D01*
X007955Y009869D02*
X006740Y009869D01*
X006740Y009770D02*
X007935Y009770D01*
X007935Y009672D02*
X006740Y009672D01*
X006725Y009573D02*
X007923Y009573D01*
X007814Y009475D02*
X006693Y009475D01*
X006661Y009376D02*
X007765Y009376D01*
X007744Y009278D02*
X006629Y009278D01*
X006628Y009276D02*
X006628Y009276D01*
X006558Y009179D02*
X007744Y009179D01*
X007744Y009081D02*
X006486Y009081D01*
X006416Y008984D02*
X006416Y008984D01*
X006416Y008984D01*
X006414Y008982D02*
X007744Y008982D01*
X007744Y008884D02*
X006278Y008884D01*
X006142Y008785D02*
X007744Y008785D01*
X007744Y008687D02*
X005862Y008687D01*
X005796Y008490D02*
X007785Y008490D01*
X007744Y008588D02*
X005650Y008588D01*
X005953Y008391D02*
X007861Y008391D01*
X008037Y008293D02*
X006175Y008293D01*
X006516Y008194D02*
X013114Y008194D01*
X013114Y008293D02*
X012563Y008293D01*
X012739Y008391D02*
X013114Y008391D01*
X013114Y008490D02*
X012815Y008490D01*
X012856Y008588D02*
X013114Y008588D01*
X013114Y008687D02*
X012856Y008687D01*
X012856Y008785D02*
X013114Y008785D01*
X013114Y008884D02*
X012856Y008884D01*
X012856Y008982D02*
X013123Y008982D01*
X013164Y009081D02*
X012856Y009081D01*
X012856Y009179D02*
X013252Y009179D01*
X013290Y009278D02*
X012856Y009278D01*
X012835Y009376D02*
X013250Y009376D01*
X013215Y009475D02*
X012786Y009475D01*
X012677Y009573D02*
X013215Y009573D01*
X013220Y009672D02*
X012507Y009672D01*
X012464Y009770D02*
X013260Y009770D01*
X013314Y009869D02*
X012450Y009869D01*
X012450Y009967D02*
X013413Y009967D01*
X014027Y009967D02*
X014735Y009967D01*
X014737Y010066D02*
X012450Y010066D01*
X012725Y010164D02*
X014778Y010164D01*
X014828Y010263D02*
X012809Y010263D01*
X012850Y010361D02*
X013397Y010361D01*
X013245Y010460D02*
X012856Y010460D01*
X012856Y010558D02*
X013179Y010558D01*
X013146Y010657D02*
X012856Y010657D01*
X012856Y010755D02*
X013146Y010755D01*
X013146Y010854D02*
X012856Y010854D01*
X012856Y010952D02*
X013146Y010952D01*
X013146Y011051D02*
X012856Y011051D01*
X012841Y011149D02*
X012946Y011149D01*
X012644Y011374D02*
X012559Y011409D01*
X012357Y011409D01*
X012308Y011526D01*
X012166Y011668D01*
X011980Y011745D01*
X011768Y011740D02*
X011632Y011740D01*
X011591Y011839D02*
X012616Y011839D01*
X012575Y011740D02*
X012575Y011540D01*
X012644Y011374D01*
X012614Y011445D02*
X012342Y011445D01*
X012291Y011543D02*
X012575Y011543D01*
X012575Y011642D02*
X012193Y011642D01*
X012663Y011937D02*
X011497Y011937D01*
X011332Y012036D02*
X012670Y012036D01*
X012670Y012134D02*
X010770Y012134D01*
X010770Y012036D02*
X010988Y012036D01*
X010823Y011937D02*
X010777Y011937D01*
X010770Y012233D02*
X012670Y012233D01*
X012670Y012331D02*
X010770Y012331D01*
X010770Y012430D02*
X012670Y012430D01*
X012670Y012528D02*
X010770Y012528D01*
X010770Y012627D02*
X012670Y012627D01*
X012670Y012725D02*
X010770Y012725D01*
X010770Y012824D02*
X012670Y012824D01*
X012670Y012922D02*
X010782Y012922D01*
X010828Y013021D02*
X012670Y013021D01*
X012670Y013119D02*
X010850Y013119D01*
X010853Y013218D02*
X012670Y013218D01*
X012670Y013316D02*
X010858Y013316D01*
X010863Y013415D02*
X012670Y013415D01*
X012670Y013513D02*
X010868Y013513D01*
X010873Y013612D02*
X012670Y013612D01*
X012670Y013710D02*
X010878Y013710D01*
X010883Y013809D02*
X012670Y013809D01*
X012670Y013907D02*
X010888Y013907D01*
X010893Y014006D02*
X012670Y014006D01*
X012670Y014104D02*
X010898Y014104D01*
X010903Y014203D02*
X012670Y014203D01*
X012670Y014301D02*
X010908Y014301D01*
X010913Y014400D02*
X012670Y014400D01*
X012670Y014498D02*
X010918Y014498D01*
X010923Y014597D02*
X012670Y014597D01*
X012670Y014695D02*
X010928Y014695D01*
X010933Y014794D02*
X012670Y014794D01*
X012670Y014892D02*
X010938Y014892D01*
X010943Y014991D02*
X012637Y014991D01*
X012596Y015089D02*
X010952Y015089D01*
X010965Y015188D02*
X012575Y015188D01*
X012575Y015286D02*
X010965Y015286D01*
X010938Y015385D02*
X012593Y015385D01*
X012634Y015483D02*
X010898Y015483D01*
X010852Y015582D02*
X012670Y015582D01*
X012670Y015680D02*
X010848Y015680D01*
X010843Y015779D02*
X012670Y015779D01*
X012670Y015877D02*
X010838Y015877D01*
X010833Y015976D02*
X012670Y015976D01*
X012670Y016074D02*
X010828Y016074D01*
X010823Y016173D02*
X012670Y016173D01*
X012670Y016271D02*
X010818Y016271D01*
X010813Y016370D02*
X012670Y016370D01*
X012670Y016468D02*
X010808Y016468D01*
X010803Y016567D02*
X012670Y016567D01*
X012670Y016665D02*
X010798Y016665D01*
X010793Y016764D02*
X012670Y016764D01*
X012670Y016862D02*
X010788Y016862D01*
X010799Y016961D02*
X012670Y016961D01*
X012670Y017059D02*
X010840Y017059D01*
X010865Y017158D02*
X012670Y017158D01*
X012670Y017256D02*
X010865Y017256D01*
X010851Y017355D02*
X012670Y017355D01*
X012670Y017453D02*
X010810Y017453D01*
X010743Y017552D02*
X012670Y017552D01*
X012670Y017650D02*
X010641Y017650D01*
X010079Y017650D02*
X009090Y017650D01*
X009090Y017552D02*
X009977Y017552D01*
X009910Y017453D02*
X009090Y017453D01*
X009090Y017355D02*
X009869Y017355D01*
X009855Y017256D02*
X009090Y017256D01*
X009090Y017158D02*
X009855Y017158D01*
X009880Y017059D02*
X009090Y017059D01*
X009090Y016961D02*
X009921Y016961D01*
X009967Y016862D02*
X009090Y016862D01*
X009090Y016764D02*
X009972Y016764D01*
X009977Y016665D02*
X009090Y016665D01*
X009090Y016567D02*
X009982Y016567D01*
X009987Y016468D02*
X009090Y016468D01*
X009090Y016370D02*
X009992Y016370D01*
X009997Y016271D02*
X009090Y016271D01*
X009090Y016173D02*
X010002Y016173D01*
X010007Y016074D02*
X009090Y016074D01*
X009090Y015976D02*
X010012Y015976D01*
X010017Y015877D02*
X009090Y015877D01*
X009090Y015779D02*
X010022Y015779D01*
X010026Y015680D02*
X009090Y015680D01*
X009090Y015582D02*
X010031Y015582D01*
X010022Y015483D02*
X009090Y015483D01*
X009090Y015385D02*
X009982Y015385D01*
X009955Y015286D02*
X009090Y015286D01*
X009090Y015188D02*
X009955Y015188D01*
X009968Y015089D02*
X009090Y015089D01*
X009090Y014991D02*
X010008Y014991D01*
X010074Y014892D02*
X009090Y014892D01*
X009121Y014794D02*
X010112Y014794D01*
X010107Y014695D02*
X009201Y014695D01*
X009242Y014597D02*
X010102Y014597D01*
X010097Y014498D02*
X009265Y014498D01*
X009265Y014400D02*
X010092Y014400D01*
X010087Y014301D02*
X009373Y014301D01*
X009446Y014203D02*
X010082Y014203D01*
X010077Y014104D02*
X009487Y014104D01*
X009841Y014006D02*
X010072Y014006D01*
X010067Y013907D02*
X009940Y013907D01*
X010038Y013809D02*
X010060Y013809D01*
X009000Y011753D02*
X008807Y011560D01*
X008193Y011560D01*
X008000Y011753D01*
X007807Y011560D01*
X007725Y011560D01*
X007649Y011248D01*
X007673Y011346D02*
X007898Y011346D01*
X007905Y011353D02*
X007801Y011249D01*
X007759Y011149D02*
X007685Y011149D01*
X007685Y011051D02*
X007744Y011051D01*
X007744Y010952D02*
X007682Y010952D01*
X007641Y010854D02*
X007744Y010854D01*
X007744Y010755D02*
X007589Y010755D01*
X007491Y010657D02*
X007744Y010657D01*
X007905Y011353D02*
X008041Y011409D01*
X009070Y011409D01*
X009070Y011683D01*
X009000Y011753D01*
X008987Y011740D02*
X009013Y011740D01*
X009070Y011642D02*
X008888Y011642D01*
X009070Y011543D02*
X007721Y011543D01*
X007697Y011445D02*
X009070Y011445D01*
X008112Y011642D02*
X007888Y011642D01*
X007987Y011740D02*
X008013Y011740D01*
X009463Y010361D02*
X009790Y010361D01*
X009790Y010263D02*
X009422Y010263D01*
X009337Y010164D02*
X009790Y010164D01*
X009790Y010066D02*
X009090Y010066D01*
X009090Y009967D02*
X009756Y009967D01*
X009715Y009869D02*
X009090Y009869D01*
X009104Y009770D02*
X009695Y009770D01*
X009695Y009672D02*
X009147Y009672D01*
X009289Y009573D02*
X009714Y009573D01*
X009755Y009475D02*
X009399Y009475D01*
X009447Y009376D02*
X009830Y009376D01*
X009949Y009278D02*
X009468Y009278D01*
X009468Y009179D02*
X010721Y009179D01*
X010750Y009278D02*
X010451Y009278D01*
X010570Y009376D02*
X010750Y009376D01*
X010750Y009475D02*
X010645Y009475D01*
X010686Y009573D02*
X010750Y009573D01*
X010734Y009672D02*
X010705Y009672D01*
X010680Y009081D02*
X009468Y009081D01*
X009468Y008982D02*
X010655Y008982D01*
X010655Y008884D02*
X009468Y008884D01*
X009468Y008785D02*
X010669Y008785D01*
X010710Y008687D02*
X009468Y008687D01*
X009468Y008588D02*
X010778Y008588D01*
X010880Y008490D02*
X009428Y008490D01*
X009352Y008391D02*
X011248Y008391D01*
X011424Y008293D02*
X009176Y008293D01*
X009599Y010460D02*
X009790Y010460D01*
X009790Y010558D02*
X009698Y010558D01*
X009668Y010528D02*
X009668Y010528D01*
X006124Y008772D02*
X006124Y008772D01*
X004975Y010755D02*
X004970Y010755D01*
X004970Y010854D02*
X005153Y010854D01*
X005076Y010828D02*
X005076Y010828D01*
X014035Y010361D02*
X014397Y010361D01*
X014245Y010460D02*
X014186Y010460D01*
X014126Y009869D02*
X014729Y009869D01*
X014630Y009770D02*
X014180Y009770D01*
X014220Y009672D02*
X014532Y009672D01*
X014433Y009573D02*
X014225Y009573D01*
X014225Y009475D02*
X014335Y009475D01*
X014293Y009376D02*
X014190Y009376D01*
X014150Y009278D02*
X014270Y009278D01*
X014252Y009179D02*
X014130Y009179D01*
X016130Y009179D02*
X016430Y009179D01*
X016430Y009158D02*
X016492Y009008D01*
X016572Y008928D01*
X016688Y008812D01*
X016744Y008789D01*
X016744Y008787D01*
X016801Y008651D01*
X016905Y008547D01*
X017041Y008491D01*
X018076Y008491D01*
X018260Y008415D01*
X018460Y008415D01*
X018646Y008492D01*
X018788Y008634D01*
X018865Y008820D01*
X018865Y009020D01*
X018788Y009206D01*
X018726Y009268D01*
X018708Y009312D01*
X018628Y009392D01*
X018512Y009508D01*
X018468Y009526D01*
X018412Y009661D01*
X018308Y009765D01*
X018172Y009822D01*
X017250Y009822D01*
X017250Y010498D01*
X017556Y010498D01*
X017556Y010894D01*
X017656Y010894D01*
X017656Y010498D01*
X018118Y010498D01*
X018156Y010509D01*
X018191Y010528D01*
X018218Y010556D01*
X018238Y010591D01*
X018248Y010629D01*
X018248Y010894D01*
X017656Y010894D01*
X017656Y010994D01*
X018132Y010994D01*
X018154Y010972D01*
X018340Y010895D01*
X018540Y010895D01*
X018726Y010972D01*
X018868Y011114D01*
X018945Y011300D01*
X018945Y011500D01*
X018868Y011686D01*
X018850Y011704D01*
X018850Y013324D01*
X018966Y013372D01*
X019108Y013514D01*
X019185Y013700D01*
X019185Y013819D01*
X019212Y013754D01*
X019354Y013612D01*
X019540Y013535D01*
X019740Y013535D01*
X019926Y013612D01*
X020068Y013754D01*
X020145Y013940D01*
X020145Y014050D01*
X020246Y014092D01*
X020270Y014116D01*
X020270Y014104D01*
X020258Y014104D01*
X020270Y014104D02*
X020252Y014086D01*
X020175Y013900D01*
X020175Y013700D01*
X020252Y013514D01*
X020394Y013372D01*
X020580Y013295D01*
X020780Y013295D01*
X020966Y013372D01*
X021108Y013514D01*
X021185Y013700D01*
X021185Y013900D01*
X021108Y014086D01*
X021090Y014104D01*
X021295Y014104D01*
X021295Y014140D02*
X021295Y013940D01*
X021372Y013754D01*
X021390Y013736D01*
X021390Y011464D01*
X021372Y011446D01*
X021348Y011389D01*
X021044Y011389D01*
X021044Y010994D01*
X020944Y010994D01*
X020944Y011389D01*
X020482Y011389D01*
X020444Y011379D01*
X020409Y011359D01*
X020382Y011331D01*
X020362Y011297D01*
X020352Y011259D01*
X020352Y010994D01*
X020944Y010994D01*
X020944Y010894D01*
X021044Y010894D01*
X021044Y010498D01*
X021506Y010498D01*
X021544Y010509D01*
X021578Y010528D01*
X021606Y010556D01*
X021626Y010591D01*
X021636Y010629D01*
X021636Y010681D01*
X021700Y010655D01*
X021900Y010655D01*
X022086Y010732D01*
X022228Y010874D01*
X022305Y011060D01*
X022305Y011260D01*
X022228Y011446D01*
X022210Y011464D01*
X022210Y011605D01*
X022330Y011555D01*
X022530Y011555D01*
X022716Y011632D01*
X022858Y011774D01*
X022935Y011960D01*
X022935Y012160D01*
X022885Y012281D01*
X023032Y013121D01*
X023189Y013840D01*
X023202Y013865D01*
X023206Y013919D01*
X023218Y013972D01*
X023213Y014000D01*
X023402Y016326D01*
X023403Y016327D01*
X023409Y016407D01*
X023415Y016488D01*
X023415Y016489D01*
X023415Y016490D01*
X023390Y016566D01*
X023365Y016643D01*
X023365Y016644D01*
X023078Y017521D01*
X023069Y017574D01*
X023053Y017598D01*
X023044Y017625D01*
X023009Y017666D01*
X022785Y018014D01*
X022785Y018140D01*
X022708Y018326D01*
X022566Y018468D01*
X022380Y018545D01*
X022180Y018545D01*
X021994Y018468D01*
X021852Y018326D01*
X021783Y018161D01*
X021748Y018246D01*
X021606Y018388D01*
X021438Y018458D01*
X021472Y018492D01*
X021588Y018608D01*
X021650Y018758D01*
X021650Y019236D01*
X021674Y019212D01*
X021860Y019135D01*
X022060Y019135D01*
X022246Y019212D01*
X022388Y019354D01*
X022465Y019540D01*
X022465Y019740D01*
X022388Y019926D01*
X022370Y019944D01*
X022370Y021576D01*
X022388Y021594D01*
X022465Y021780D01*
X022465Y021980D01*
X022388Y022166D01*
X022246Y022308D01*
X022060Y022385D01*
X021860Y022385D01*
X021674Y022308D01*
X021532Y022166D01*
X021523Y022145D01*
X021380Y022145D01*
X021194Y022068D01*
X021052Y021926D01*
X020975Y021740D01*
X020975Y021540D01*
X021052Y021354D01*
X021070Y021336D01*
X021070Y020945D01*
X020980Y020945D01*
X020794Y020868D01*
X020757Y020831D01*
X020675Y020866D01*
X020183Y020866D01*
X020246Y020892D01*
X020388Y021034D01*
X020465Y021220D01*
X020465Y021420D01*
X020388Y021606D01*
X020370Y021624D01*
X020370Y023677D01*
X020406Y023692D01*
X020548Y023834D01*
X020625Y024020D01*
X020625Y024022D01*
X020653Y024010D01*
X020947Y024010D01*
X021219Y024123D01*
X021250Y024153D01*
X021381Y024023D01*
X021653Y023910D01*
X021947Y023910D01*
X022216Y024021D01*
X022198Y023998D01*
X022054Y023938D01*
X021912Y023796D01*
X021835Y023610D01*
X021835Y023410D01*
X021912Y023224D01*
X022054Y023082D01*
X022240Y023005D01*
X022440Y023005D01*
X022626Y023082D01*
X022768Y023224D01*
X022845Y023410D01*
X022845Y023494D01*
X023203Y023960D01*
X023377Y023960D01*
X023649Y024073D01*
X023800Y024223D01*
X023951Y024073D01*
X024223Y023960D01*
X024517Y023960D01*
X024789Y024073D01*
X024997Y024281D01*
X025110Y024553D01*
X025110Y024847D01*
X024997Y025119D01*
X024789Y025327D01*
X024517Y025440D01*
X024223Y025440D01*
X023951Y025327D01*
X023800Y025177D01*
X023649Y025327D01*
X023377Y025440D01*
X023083Y025440D01*
X022811Y025327D01*
X022603Y025119D01*
X022505Y024883D01*
X022427Y025069D01*
X022219Y025277D01*
X021947Y025390D01*
X021653Y025390D01*
X021381Y025277D01*
X021350Y025247D01*
X021219Y025377D01*
X020947Y025490D01*
X020653Y025490D01*
X020381Y025377D01*
X020250Y025247D01*
X020219Y025277D01*
X019947Y025390D01*
X019653Y025390D01*
X019381Y025277D01*
X019173Y025069D01*
X019100Y024894D01*
X019027Y025069D01*
X018850Y025247D01*
X018850Y025656D01*
X018868Y025674D01*
X018945Y025860D01*
X018945Y025930D01*
X025040Y025930D01*
X025054Y025926D01*
X025114Y025930D01*
X025174Y025930D01*
X025182Y025933D01*
X025725Y025957D01*
X026920Y025899D01*
X028099Y025699D01*
X029246Y025357D01*
X030343Y024880D01*
X031375Y024274D01*
X032326Y023548D01*
X033182Y022713D01*
X033932Y021781D01*
X034564Y020765D01*
X034689Y020496D01*
X034564Y020620D01*
X034263Y020745D01*
X033937Y020745D01*
X033636Y020620D01*
X033405Y020389D01*
X033280Y020088D01*
X033280Y019762D01*
X033342Y019612D01*
X033286Y019668D01*
X033100Y019745D01*
X032900Y019745D01*
X032714Y019668D01*
X032572Y019526D01*
X032495Y019340D01*
X032495Y019140D01*
X032572Y018954D01*
X032590Y018936D01*
X032590Y018104D01*
X032572Y018086D01*
X032530Y017985D01*
X032530Y018602D01*
X032468Y018752D01*
X032352Y018868D01*
X032130Y019090D01*
X032130Y019612D01*
X032207Y019580D01*
X032493Y019580D01*
X032758Y019690D01*
X032960Y019892D01*
X033070Y020157D01*
X033070Y020443D01*
X032960Y020708D01*
X032758Y020910D01*
X032493Y021020D01*
X032207Y021020D01*
X032130Y020988D01*
X032130Y021016D01*
X032148Y021034D01*
X032225Y021220D01*
X032225Y021420D01*
X032149Y021604D01*
X032207Y021580D01*
X032493Y021580D01*
X032758Y021690D01*
X032960Y021892D01*
X033070Y022157D01*
X033070Y022443D01*
X032960Y022708D01*
X032758Y022910D01*
X032493Y023020D01*
X032207Y023020D01*
X031942Y022910D01*
X031740Y022708D01*
X031630Y022443D01*
X031630Y022157D01*
X031740Y021892D01*
X031807Y021825D01*
X031620Y021825D01*
X031434Y021748D01*
X031292Y021606D01*
X031215Y021420D01*
X031215Y021220D01*
X031292Y021034D01*
X031310Y021016D01*
X031310Y019123D01*
X031274Y019108D01*
X031132Y018966D01*
X031055Y018780D01*
X031055Y018665D01*
X029586Y016495D01*
X029474Y016448D01*
X029332Y016306D01*
X029321Y016279D01*
X029268Y016406D01*
X029126Y016548D01*
X028940Y016625D01*
X028740Y016625D01*
X028555Y016549D01*
X028548Y016566D01*
X028530Y016584D01*
X028530Y018376D01*
X028548Y018394D01*
X028625Y018580D01*
X028625Y018780D01*
X028548Y018966D01*
X028406Y019108D01*
X028338Y019136D01*
X028564Y019230D01*
X028795Y019461D01*
X028920Y019762D01*
X028920Y020088D01*
X028795Y020389D01*
X028564Y020620D01*
X028263Y020745D01*
X027937Y020745D01*
X027636Y020620D01*
X027405Y020389D01*
X027280Y020088D01*
X027280Y019762D01*
X027405Y019461D01*
X027636Y019230D01*
X027882Y019128D01*
X027834Y019108D01*
X027692Y018966D01*
X027615Y018780D01*
X027615Y018580D01*
X027692Y018394D01*
X027710Y018376D01*
X027710Y017708D01*
X027508Y017910D01*
X027444Y017937D01*
X027481Y017974D01*
X027528Y018038D01*
X027563Y018108D01*
X027588Y018183D01*
X027600Y018261D01*
X027600Y018262D01*
X027138Y018262D01*
X027138Y018338D01*
X027062Y018338D01*
X027062Y018800D01*
X027061Y018800D01*
X026983Y018788D01*
X026908Y018763D01*
X026838Y018728D01*
X026774Y018681D01*
X026719Y018626D01*
X026672Y018562D01*
X026637Y018492D01*
X026612Y018417D01*
X026600Y018339D01*
X026600Y018338D01*
X027062Y018338D01*
X027062Y018262D01*
X026600Y018262D01*
X026600Y018261D01*
X026612Y018183D01*
X026637Y018108D01*
X026672Y018038D01*
X026719Y017974D01*
X026756Y017937D01*
X026692Y017910D01*
X026490Y017708D01*
X026380Y017443D01*
X026380Y017157D01*
X026490Y016892D01*
X026582Y016800D01*
X026490Y016708D01*
X026380Y016443D01*
X026380Y016157D01*
X026490Y015892D01*
X026670Y015712D01*
X026670Y015704D01*
X026652Y015686D01*
X026575Y015500D01*
X026575Y015300D01*
X026652Y015114D01*
X026670Y015096D01*
X026670Y014017D01*
X026655Y013980D01*
X026655Y013780D01*
X026732Y013594D01*
X026874Y013452D01*
X027060Y013375D01*
X027260Y013375D01*
X027446Y013452D01*
X027588Y013594D01*
X027665Y013780D01*
X027665Y013968D01*
X027895Y013872D01*
X027895Y013850D01*
X027950Y013716D01*
X027752Y013063D01*
X027622Y013025D01*
X027550Y013055D01*
X027350Y013055D01*
X027164Y012978D01*
X027022Y012836D01*
X026945Y012650D01*
X026945Y012450D01*
X027022Y012264D01*
X027164Y012122D01*
X027350Y012045D01*
X027550Y012045D01*
X027685Y012101D01*
X027685Y012010D01*
X027762Y011824D01*
X027904Y011682D01*
X028090Y011605D01*
X028290Y011605D01*
X028476Y011682D01*
X028510Y011716D01*
X028510Y010184D01*
X028412Y010086D01*
X028335Y009900D01*
X028335Y009700D01*
X028412Y009514D01*
X028554Y009372D01*
X028623Y009343D01*
X028652Y009274D01*
X028794Y009132D01*
X028980Y009055D01*
X029180Y009055D01*
X029300Y009104D01*
X029397Y009007D01*
X029638Y008907D01*
X029899Y008907D01*
X030139Y009007D01*
X030324Y009191D01*
X030423Y009432D01*
X030423Y009693D01*
X030324Y009933D01*
X030217Y010040D01*
X030287Y010207D01*
X030287Y010468D01*
X030187Y010709D01*
X030003Y010893D01*
X029762Y010993D01*
X029501Y010993D01*
X029490Y010988D01*
X029490Y012602D01*
X029428Y012752D01*
X029410Y012770D01*
X029410Y015256D01*
X029508Y015354D01*
X029585Y015540D01*
X029585Y015546D01*
X029660Y015515D01*
X029860Y015515D01*
X029985Y015567D01*
X031202Y015364D01*
X031274Y015292D01*
X031460Y015215D01*
X031617Y015215D01*
X031692Y015034D01*
X031710Y015016D01*
X031710Y013918D01*
X031692Y013910D01*
X031600Y013818D01*
X031508Y013910D01*
X031243Y014020D01*
X030957Y014020D01*
X030692Y013910D01*
X030490Y013708D01*
X030463Y013644D01*
X030426Y013681D01*
X030362Y013728D01*
X030292Y013763D01*
X030217Y013788D01*
X030139Y013800D01*
X030138Y013800D01*
X030138Y013338D01*
X030062Y013338D01*
X030062Y013800D01*
X030061Y013800D01*
X029983Y013788D01*
X029908Y013763D01*
X029838Y013728D01*
X029774Y013681D01*
X029719Y013626D01*
X029672Y013562D01*
X029637Y013492D01*
X029612Y013417D01*
X029600Y013339D01*
X029600Y013338D01*
X030062Y013338D01*
X030062Y013262D01*
X030138Y013262D01*
X030138Y012800D01*
X030139Y012800D01*
X030217Y012812D01*
X030292Y012837D01*
X030362Y012872D01*
X030426Y012919D01*
X030463Y012956D01*
X030490Y012892D01*
X030692Y012690D01*
X030957Y012580D01*
X031243Y012580D01*
X031508Y012690D01*
X031600Y012782D01*
X031692Y012690D01*
X031710Y012682D01*
X031710Y010664D01*
X031692Y010646D01*
X031615Y010460D01*
X031615Y010260D01*
X031692Y010074D01*
X031834Y009932D01*
X032020Y009855D01*
X032080Y009855D01*
X031760Y009615D01*
X030828Y009077D01*
X029838Y008656D01*
X028805Y008357D01*
X027743Y008184D01*
X026667Y008142D01*
X026183Y008166D01*
X026174Y008170D01*
X026115Y008170D01*
X026057Y008175D01*
X026042Y008170D01*
X021425Y008170D01*
X021425Y008220D01*
X021348Y008406D01*
X021330Y008424D01*
X021330Y008491D01*
X021559Y008491D01*
X021695Y008547D01*
X021799Y008651D01*
X021856Y008787D01*
X021856Y009525D01*
X021799Y009661D01*
X021695Y009765D01*
X021559Y009822D01*
X020428Y009822D01*
X020292Y009765D01*
X020188Y009661D01*
X020132Y009525D01*
X020132Y008787D01*
X020188Y008651D01*
X020292Y008547D01*
X020428Y008491D01*
X020510Y008491D01*
X020510Y008424D01*
X020492Y008406D01*
X020415Y008220D01*
X020415Y008170D01*
X016254Y008170D01*
X016254Y008961D01*
X016198Y009097D01*
X016130Y009165D01*
X016130Y009496D01*
X016148Y009514D01*
X016225Y009700D01*
X016225Y009900D01*
X016148Y010086D01*
X016130Y010104D01*
X016130Y010403D01*
X016229Y010503D01*
X016286Y010639D01*
X016286Y011586D01*
X016229Y011722D01*
X016130Y011821D01*
X016130Y011964D01*
X016246Y012012D01*
X016388Y012154D01*
X016430Y012255D01*
X016430Y009158D01*
X016462Y009081D02*
X016205Y009081D01*
X016246Y008982D02*
X016518Y008982D01*
X016617Y008884D02*
X016254Y008884D01*
X016254Y008785D02*
X016745Y008785D01*
X016786Y008687D02*
X016254Y008687D01*
X016254Y008588D02*
X016864Y008588D01*
X016254Y008490D02*
X018080Y008490D01*
X018640Y008490D02*
X020510Y008490D01*
X020486Y008391D02*
X016254Y008391D01*
X016254Y008293D02*
X020445Y008293D01*
X020415Y008194D02*
X016254Y008194D01*
X016130Y009278D02*
X016430Y009278D01*
X016430Y009376D02*
X016130Y009376D01*
X016130Y009475D02*
X016430Y009475D01*
X016430Y009573D02*
X016173Y009573D01*
X016213Y009672D02*
X016430Y009672D01*
X016430Y009770D02*
X016225Y009770D01*
X016225Y009869D02*
X016430Y009869D01*
X016430Y009967D02*
X016197Y009967D01*
X016157Y010066D02*
X016430Y010066D01*
X016430Y010164D02*
X016130Y010164D01*
X016130Y010263D02*
X016430Y010263D01*
X016430Y010361D02*
X016130Y010361D01*
X016186Y010460D02*
X016430Y010460D01*
X016430Y010558D02*
X016252Y010558D01*
X016286Y010657D02*
X016430Y010657D01*
X016430Y010755D02*
X016286Y010755D01*
X016286Y010854D02*
X016430Y010854D01*
X016430Y010952D02*
X016286Y010952D01*
X016286Y011051D02*
X016430Y011051D01*
X016430Y011149D02*
X016286Y011149D01*
X016286Y011248D02*
X016430Y011248D01*
X016430Y011346D02*
X016286Y011346D01*
X016286Y011445D02*
X016430Y011445D01*
X016430Y011543D02*
X016286Y011543D01*
X016263Y011642D02*
X016430Y011642D01*
X016430Y011740D02*
X016211Y011740D01*
X016130Y011839D02*
X016430Y011839D01*
X016430Y011937D02*
X016130Y011937D01*
X016270Y012036D02*
X016430Y012036D01*
X016430Y012134D02*
X016368Y012134D01*
X016421Y012233D02*
X016430Y012233D01*
X017250Y012233D02*
X018030Y012233D01*
X018030Y012331D02*
X017250Y012331D01*
X017250Y012430D02*
X018030Y012430D01*
X018030Y012528D02*
X017250Y012528D01*
X017250Y012627D02*
X018030Y012627D01*
X018030Y012725D02*
X017250Y012725D01*
X017250Y012824D02*
X018030Y012824D01*
X018030Y012922D02*
X017250Y012922D01*
X017250Y013021D02*
X018030Y013021D01*
X018030Y013119D02*
X017250Y013119D01*
X017250Y013218D02*
X018030Y013218D01*
X018030Y013316D02*
X017250Y013316D01*
X017250Y013415D02*
X018030Y013415D01*
X018030Y013513D02*
X017250Y013513D01*
X017250Y013612D02*
X018030Y013612D01*
X018030Y013710D02*
X017250Y013710D01*
X017250Y013809D02*
X018030Y013809D01*
X018030Y013907D02*
X017250Y013907D01*
X017250Y014006D02*
X018030Y014006D01*
X018056Y014104D02*
X017250Y014104D01*
X017250Y014203D02*
X018103Y014203D01*
X018110Y014301D02*
X017250Y014301D01*
X017250Y014400D02*
X018110Y014400D01*
X018110Y014498D02*
X017250Y014498D01*
X017250Y014597D02*
X018110Y014597D01*
X018110Y014695D02*
X017250Y014695D01*
X017250Y014794D02*
X018110Y014794D01*
X018110Y014892D02*
X017250Y014892D01*
X017250Y014991D02*
X018110Y014991D01*
X018110Y015089D02*
X017250Y015089D01*
X017250Y015188D02*
X018110Y015188D01*
X018110Y015286D02*
X017250Y015286D01*
X017250Y015385D02*
X018110Y015385D01*
X018110Y015483D02*
X017250Y015483D01*
X017250Y015582D02*
X018087Y015582D01*
X018043Y015680D02*
X017250Y015680D01*
X017250Y015779D02*
X018029Y015779D01*
X018014Y015877D02*
X017250Y015877D01*
X017250Y015976D02*
X017999Y015976D01*
X017985Y016074D02*
X017250Y016074D01*
X017250Y016173D02*
X017923Y016173D01*
X017876Y016271D02*
X017283Y016271D01*
X017324Y016370D02*
X017835Y016370D01*
X017835Y016468D02*
X017345Y016468D01*
X017345Y016567D02*
X017835Y016567D01*
X017874Y016665D02*
X017327Y016665D01*
X017286Y016764D02*
X017847Y016764D01*
X017845Y016862D02*
X017212Y016862D01*
X017096Y016961D02*
X017845Y016961D01*
X017747Y017059D02*
X014930Y017059D01*
X014930Y016961D02*
X016584Y016961D01*
X016468Y016862D02*
X014930Y016862D01*
X014930Y016764D02*
X016394Y016764D01*
X016353Y016665D02*
X014930Y016665D01*
X014930Y016567D02*
X016335Y016567D01*
X016335Y016468D02*
X014930Y016468D01*
X014930Y016370D02*
X016356Y016370D01*
X016397Y016271D02*
X014930Y016271D01*
X015022Y016173D02*
X016430Y016173D01*
X016430Y016074D02*
X015112Y016074D01*
X015219Y015976D02*
X016430Y015976D01*
X016430Y015877D02*
X015288Y015877D01*
X015329Y015779D02*
X016430Y015779D01*
X016430Y015680D02*
X015345Y015680D01*
X015345Y015582D02*
X016430Y015582D01*
X016430Y015483D02*
X015322Y015483D01*
X015281Y015385D02*
X016430Y015385D01*
X016430Y015286D02*
X015250Y015286D01*
X015250Y015188D02*
X016430Y015188D01*
X016430Y015089D02*
X015250Y015089D01*
X015250Y014991D02*
X016430Y014991D01*
X016430Y014892D02*
X015250Y014892D01*
X015250Y014794D02*
X016430Y014794D01*
X016430Y014695D02*
X015250Y014695D01*
X015250Y014597D02*
X016430Y014597D01*
X016430Y014498D02*
X015256Y014498D01*
X015304Y014400D02*
X016430Y014400D01*
X016430Y014301D02*
X015345Y014301D01*
X015345Y014203D02*
X016430Y014203D01*
X016430Y014104D02*
X015345Y014104D01*
X015306Y014006D02*
X015716Y014006D01*
X015593Y013907D02*
X015276Y013907D01*
X015317Y013809D02*
X015516Y013809D01*
X015476Y013710D02*
X015345Y013710D01*
X015345Y013612D02*
X015455Y013612D01*
X015359Y013513D02*
X015334Y013513D01*
X016204Y014006D02*
X016430Y014006D01*
X016430Y013907D02*
X016327Y013907D01*
X016404Y013809D02*
X016430Y013809D01*
X017250Y012134D02*
X018030Y012134D01*
X018030Y012036D02*
X017250Y012036D01*
X017250Y011937D02*
X018030Y011937D01*
X018030Y011839D02*
X017250Y011839D01*
X017250Y011740D02*
X018030Y011740D01*
X017993Y011642D02*
X017250Y011642D01*
X017250Y011543D02*
X017953Y011543D01*
X017935Y011445D02*
X017250Y011445D01*
X017556Y011346D02*
X017656Y011346D01*
X017656Y011248D02*
X017556Y011248D01*
X017556Y011149D02*
X017656Y011149D01*
X017656Y011051D02*
X017556Y011051D01*
X017656Y010952D02*
X018202Y010952D01*
X018248Y010854D02*
X020352Y010854D01*
X020352Y010894D02*
X020352Y010629D01*
X020362Y010591D01*
X020382Y010556D01*
X020409Y010528D01*
X020444Y010509D01*
X020482Y010498D01*
X020944Y010498D01*
X020944Y010894D01*
X020352Y010894D01*
X020352Y010755D02*
X018248Y010755D01*
X018248Y010657D02*
X020352Y010657D01*
X020381Y010558D02*
X018219Y010558D01*
X017656Y010558D02*
X017556Y010558D01*
X017556Y010657D02*
X017656Y010657D01*
X017656Y010755D02*
X017556Y010755D01*
X017556Y010854D02*
X017656Y010854D01*
X017250Y010460D02*
X023415Y010460D01*
X023382Y010426D02*
X023454Y010498D01*
X023156Y010498D01*
X023156Y010894D01*
X023056Y010894D01*
X022464Y010894D01*
X022464Y010629D01*
X022474Y010591D01*
X022494Y010556D01*
X022522Y010528D01*
X022556Y010509D01*
X022594Y010498D01*
X023056Y010498D01*
X023056Y010894D01*
X023056Y010994D01*
X022464Y010994D01*
X022464Y011259D01*
X022474Y011297D01*
X022494Y011331D01*
X022522Y011359D01*
X022556Y011379D01*
X022594Y011389D01*
X023056Y011389D01*
X023056Y010994D01*
X023156Y010994D01*
X023156Y011389D01*
X023618Y011389D01*
X023656Y011379D01*
X023691Y011359D01*
X023718Y011331D01*
X023738Y011297D01*
X023748Y011259D01*
X023748Y010994D01*
X023156Y010994D01*
X023156Y010894D01*
X023748Y010894D01*
X023748Y010645D01*
X023910Y010645D01*
X024096Y010568D01*
X024238Y010426D01*
X024315Y010240D01*
X024315Y010040D01*
X024238Y009854D01*
X024125Y009740D01*
X023970Y009184D01*
X023970Y009158D01*
X023968Y009155D01*
X023968Y008787D01*
X023912Y008651D01*
X023808Y008547D01*
X023672Y008491D01*
X022541Y008491D01*
X022405Y008547D01*
X022301Y008651D01*
X022244Y008787D01*
X022244Y009525D01*
X022301Y009661D01*
X022405Y009765D01*
X022541Y009822D01*
X023296Y009822D01*
X023336Y009965D01*
X023305Y010040D01*
X023305Y010240D01*
X023382Y010426D01*
X023355Y010361D02*
X017250Y010361D01*
X017250Y010263D02*
X023314Y010263D01*
X023305Y010164D02*
X017250Y010164D01*
X017250Y010066D02*
X023305Y010066D01*
X023335Y009967D02*
X017250Y009967D01*
X017250Y009869D02*
X023309Y009869D01*
X023156Y010558D02*
X023056Y010558D01*
X023056Y010657D02*
X023156Y010657D01*
X023156Y010755D02*
X023056Y010755D01*
X023056Y010854D02*
X023156Y010854D01*
X023156Y010952D02*
X026444Y010952D01*
X026444Y010945D02*
X026340Y010945D01*
X026216Y010894D01*
X025852Y010894D01*
X025852Y010629D01*
X025862Y010591D01*
X025882Y010556D01*
X025909Y010528D01*
X025935Y010514D01*
X025935Y010340D01*
X026012Y010154D01*
X026030Y010136D01*
X026030Y009822D01*
X025928Y009822D01*
X025792Y009765D01*
X025688Y009661D01*
X025632Y009525D01*
X025632Y008787D01*
X025688Y008651D01*
X025792Y008547D01*
X025928Y008491D01*
X027059Y008491D01*
X027195Y008547D01*
X027299Y008651D01*
X027356Y008787D01*
X027356Y009525D01*
X027299Y009661D01*
X027195Y009765D01*
X027059Y009822D01*
X026850Y009822D01*
X026850Y010136D01*
X026868Y010154D01*
X026945Y010340D01*
X026945Y010498D01*
X027006Y010498D01*
X027044Y010509D01*
X027078Y010528D01*
X027106Y010556D01*
X027126Y010591D01*
X027136Y010629D01*
X027136Y010894D01*
X026664Y010894D01*
X026544Y010944D01*
X026544Y010994D01*
X026444Y010994D01*
X026444Y011389D01*
X025982Y011389D01*
X025944Y011379D01*
X025909Y011359D01*
X025882Y011331D01*
X025862Y011297D01*
X025852Y011259D01*
X025852Y010994D01*
X026444Y010994D01*
X026444Y010945D01*
X026544Y010952D02*
X028510Y010952D01*
X028510Y010854D02*
X027136Y010854D01*
X027136Y010755D02*
X028510Y010755D01*
X028510Y010657D02*
X027136Y010657D01*
X027107Y010558D02*
X028510Y010558D01*
X028510Y010460D02*
X026945Y010460D01*
X026945Y010361D02*
X028510Y010361D01*
X028510Y010263D02*
X026913Y010263D01*
X026872Y010164D02*
X028490Y010164D01*
X028403Y010066D02*
X026850Y010066D01*
X026850Y009967D02*
X028363Y009967D01*
X028335Y009869D02*
X026850Y009869D01*
X027184Y009770D02*
X028335Y009770D01*
X028347Y009672D02*
X027289Y009672D01*
X027336Y009573D02*
X028387Y009573D01*
X028451Y009475D02*
X027356Y009475D01*
X027356Y009376D02*
X028550Y009376D01*
X028650Y009278D02*
X027356Y009278D01*
X027356Y009179D02*
X028747Y009179D01*
X028918Y009081D02*
X027356Y009081D01*
X027356Y008982D02*
X029458Y008982D01*
X029324Y009081D02*
X029242Y009081D01*
X029264Y008490D02*
X021330Y008490D01*
X021354Y008391D02*
X028923Y008391D01*
X028409Y008293D02*
X021395Y008293D01*
X021425Y008194D02*
X027801Y008194D01*
X027236Y008588D02*
X029604Y008588D01*
X029911Y008687D02*
X027314Y008687D01*
X027355Y008785D02*
X030142Y008785D01*
X030079Y008982D02*
X030605Y008982D01*
X030834Y009081D02*
X030213Y009081D01*
X030311Y009179D02*
X031005Y009179D01*
X031176Y009278D02*
X030359Y009278D01*
X030400Y009376D02*
X031346Y009376D01*
X031517Y009475D02*
X030423Y009475D01*
X030423Y009573D02*
X031688Y009573D01*
X031836Y009672D02*
X030423Y009672D01*
X030391Y009770D02*
X031967Y009770D01*
X031987Y009869D02*
X030350Y009869D01*
X030290Y009967D02*
X031799Y009967D01*
X031700Y010066D02*
X030228Y010066D01*
X030269Y010164D02*
X031655Y010164D01*
X031615Y010263D02*
X030287Y010263D01*
X030287Y010361D02*
X031615Y010361D01*
X031615Y010460D02*
X030287Y010460D01*
X030249Y010558D02*
X031655Y010558D01*
X031702Y010657D02*
X030209Y010657D01*
X030141Y010755D02*
X031710Y010755D01*
X031710Y010854D02*
X030042Y010854D01*
X029860Y010952D02*
X031710Y010952D01*
X031710Y011051D02*
X029490Y011051D01*
X029490Y011149D02*
X031710Y011149D01*
X031710Y011248D02*
X029490Y011248D01*
X029490Y011346D02*
X031710Y011346D01*
X031710Y011445D02*
X029490Y011445D01*
X029490Y011543D02*
X031710Y011543D01*
X031710Y011642D02*
X029490Y011642D01*
X029490Y011740D02*
X031710Y011740D01*
X031710Y011839D02*
X029490Y011839D01*
X029490Y011937D02*
X031710Y011937D01*
X031710Y012036D02*
X029490Y012036D01*
X029490Y012134D02*
X031710Y012134D01*
X031710Y012233D02*
X029490Y012233D01*
X029490Y012331D02*
X031710Y012331D01*
X031710Y012430D02*
X029490Y012430D01*
X029490Y012528D02*
X031710Y012528D01*
X031710Y012627D02*
X031356Y012627D01*
X031543Y012725D02*
X031657Y012725D01*
X030844Y012627D02*
X029480Y012627D01*
X029439Y012725D02*
X030657Y012725D01*
X030558Y012824D02*
X030252Y012824D01*
X030138Y012824D02*
X030062Y012824D01*
X030062Y012800D02*
X030062Y013262D01*
X029600Y013262D01*
X029600Y013261D01*
X029612Y013183D01*
X029637Y013108D01*
X029672Y013038D01*
X029719Y012974D01*
X029774Y012919D01*
X029838Y012872D01*
X029908Y012837D01*
X029983Y012812D01*
X030061Y012800D01*
X030062Y012800D01*
X029948Y012824D02*
X029410Y012824D01*
X029410Y012922D02*
X029771Y012922D01*
X029685Y013021D02*
X029410Y013021D01*
X029410Y013119D02*
X029633Y013119D01*
X029607Y013218D02*
X029410Y013218D01*
X029410Y013316D02*
X030062Y013316D01*
X030062Y013218D02*
X030138Y013218D01*
X030138Y013119D02*
X030062Y013119D01*
X030062Y013021D02*
X030138Y013021D01*
X030138Y012922D02*
X030062Y012922D01*
X030429Y012922D02*
X030477Y012922D01*
X030138Y013415D02*
X030062Y013415D01*
X030062Y013513D02*
X030138Y013513D01*
X030138Y013612D02*
X030062Y013612D01*
X030062Y013710D02*
X030138Y013710D01*
X030386Y013710D02*
X030492Y013710D01*
X030590Y013809D02*
X029410Y013809D01*
X029410Y013907D02*
X030689Y013907D01*
X030922Y014006D02*
X029410Y014006D01*
X029410Y014104D02*
X031710Y014104D01*
X031710Y014006D02*
X031278Y014006D01*
X031511Y013907D02*
X031689Y013907D01*
X031710Y014203D02*
X029410Y014203D01*
X029410Y014301D02*
X031710Y014301D01*
X031710Y014400D02*
X029410Y014400D01*
X029410Y014498D02*
X031710Y014498D01*
X031710Y014597D02*
X029410Y014597D01*
X029410Y014695D02*
X031710Y014695D01*
X031710Y014794D02*
X029410Y014794D01*
X029410Y014892D02*
X031710Y014892D01*
X031710Y014991D02*
X029410Y014991D01*
X029410Y015089D02*
X031669Y015089D01*
X031628Y015188D02*
X029410Y015188D01*
X029440Y015286D02*
X031288Y015286D01*
X031079Y015385D02*
X029521Y015385D01*
X029562Y015483D02*
X030488Y015483D01*
X029635Y016567D02*
X029082Y016567D01*
X029206Y016468D02*
X029522Y016468D01*
X029395Y016370D02*
X029283Y016370D01*
X029701Y016665D02*
X028530Y016665D01*
X028530Y016764D02*
X029768Y016764D01*
X029835Y016862D02*
X028530Y016862D01*
X028530Y016961D02*
X029901Y016961D01*
X029968Y017059D02*
X028530Y017059D01*
X028530Y017158D02*
X030035Y017158D01*
X030101Y017256D02*
X028530Y017256D01*
X028530Y017355D02*
X030168Y017355D01*
X030235Y017453D02*
X028530Y017453D01*
X028530Y017552D02*
X030301Y017552D01*
X030368Y017650D02*
X028530Y017650D01*
X028530Y017749D02*
X030435Y017749D01*
X030501Y017847D02*
X028530Y017847D01*
X028530Y017946D02*
X030568Y017946D01*
X030635Y018044D02*
X028530Y018044D01*
X028530Y018143D02*
X030701Y018143D01*
X030768Y018241D02*
X028530Y018241D01*
X028530Y018340D02*
X030835Y018340D01*
X030901Y018438D02*
X028566Y018438D01*
X028607Y018537D02*
X030968Y018537D01*
X031035Y018635D02*
X028625Y018635D01*
X028625Y018734D02*
X031055Y018734D01*
X031076Y018832D02*
X028604Y018832D01*
X028563Y018931D02*
X031117Y018931D01*
X031195Y019029D02*
X028485Y019029D01*
X028359Y019128D02*
X031310Y019128D01*
X031310Y019226D02*
X028555Y019226D01*
X028659Y019325D02*
X031310Y019325D01*
X031310Y019423D02*
X028758Y019423D01*
X028820Y019522D02*
X031310Y019522D01*
X031310Y019620D02*
X030090Y019620D01*
X029993Y019580D02*
X030258Y019690D01*
X030460Y019892D01*
X030570Y020157D01*
X030570Y020443D01*
X030460Y020708D01*
X030290Y020878D01*
X030290Y021336D01*
X030308Y021354D01*
X030385Y021540D01*
X030385Y021740D01*
X030308Y021926D01*
X030243Y021991D01*
X030278Y022038D01*
X030313Y022108D01*
X030338Y022183D01*
X030350Y022261D01*
X030350Y022261D01*
X029889Y022261D01*
X029889Y022339D01*
X029811Y022339D01*
X029811Y022800D01*
X029733Y022788D01*
X029658Y022763D01*
X029588Y022728D01*
X029524Y022681D01*
X029469Y022626D01*
X029422Y022562D01*
X029387Y022492D01*
X029362Y022417D01*
X029350Y022339D01*
X029350Y022339D01*
X029811Y022339D01*
X029811Y022261D01*
X029350Y022261D01*
X029362Y022183D01*
X029387Y022108D01*
X029422Y022038D01*
X029469Y021974D01*
X029484Y021959D01*
X029452Y021926D01*
X029375Y021740D01*
X029375Y021540D01*
X029452Y021354D01*
X029470Y021336D01*
X029470Y020922D01*
X029442Y020910D01*
X029240Y020708D01*
X029130Y020443D01*
X029130Y020157D01*
X029240Y019892D01*
X029442Y019690D01*
X029707Y019580D01*
X029993Y019580D01*
X030287Y019719D02*
X031310Y019719D01*
X031310Y019817D02*
X030385Y019817D01*
X030470Y019916D02*
X031310Y019916D01*
X031310Y020014D02*
X030511Y020014D01*
X030552Y020113D02*
X031310Y020113D01*
X031310Y020211D02*
X030570Y020211D01*
X030570Y020310D02*
X031310Y020310D01*
X031310Y020408D02*
X030570Y020408D01*
X030544Y020507D02*
X031310Y020507D01*
X031310Y020605D02*
X030503Y020605D01*
X030462Y020704D02*
X031310Y020704D01*
X031310Y020802D02*
X030366Y020802D01*
X030290Y020901D02*
X031310Y020901D01*
X031310Y020999D02*
X030290Y020999D01*
X030290Y021098D02*
X031266Y021098D01*
X031225Y021196D02*
X030290Y021196D01*
X030290Y021295D02*
X031215Y021295D01*
X031215Y021393D02*
X030324Y021393D01*
X030365Y021492D02*
X031244Y021492D01*
X031285Y021590D02*
X030385Y021590D01*
X030385Y021689D02*
X031374Y021689D01*
X031528Y021787D02*
X030366Y021787D01*
X030325Y021886D02*
X031746Y021886D01*
X031702Y021984D02*
X030250Y021984D01*
X030300Y022083D02*
X031661Y022083D01*
X031630Y022181D02*
X030337Y022181D01*
X030350Y022339D02*
X030350Y022339D01*
X030338Y022417D01*
X030313Y022492D01*
X030278Y022562D01*
X030231Y022626D01*
X030176Y022681D01*
X030112Y022728D01*
X030042Y022763D01*
X029967Y022788D01*
X029889Y022800D01*
X029889Y022800D01*
X029889Y022339D01*
X030350Y022339D01*
X030344Y022378D02*
X031630Y022378D01*
X031630Y022280D02*
X029889Y022280D01*
X029811Y022280D02*
X028240Y022280D01*
X028240Y022378D02*
X029356Y022378D01*
X029382Y022477D02*
X028240Y022477D01*
X028240Y022481D02*
X028128Y022824D01*
X027916Y023116D01*
X027624Y023328D01*
X027281Y023440D01*
X026919Y023440D01*
X026576Y023328D01*
X026284Y023116D01*
X026072Y022824D01*
X025960Y022481D01*
X025960Y022119D01*
X026072Y021776D01*
X026284Y021484D01*
X026576Y021272D01*
X026919Y021160D01*
X027182Y021160D01*
X027281Y021160D01*
X027624Y021272D01*
X027916Y021484D01*
X028128Y021776D01*
X028240Y022119D01*
X028240Y022481D01*
X028209Y022575D02*
X029432Y022575D01*
X029516Y022674D02*
X028177Y022674D01*
X028145Y022772D02*
X029685Y022772D01*
X029811Y022772D02*
X029889Y022772D01*
X029811Y022800D02*
X029811Y022800D01*
X029811Y022674D02*
X029889Y022674D01*
X029889Y022575D02*
X029811Y022575D01*
X029811Y022477D02*
X029889Y022477D01*
X029889Y022378D02*
X029811Y022378D01*
X029350Y022261D02*
X029350Y022261D01*
X029363Y022181D02*
X028240Y022181D01*
X028228Y022083D02*
X029400Y022083D01*
X029462Y021984D02*
X028196Y021984D01*
X028164Y021886D02*
X029435Y021886D01*
X029394Y021787D02*
X028132Y021787D01*
X028128Y021776D02*
X028128Y021776D01*
X028065Y021689D02*
X029375Y021689D01*
X029375Y021590D02*
X027993Y021590D01*
X027922Y021492D02*
X029395Y021492D01*
X029436Y021393D02*
X027791Y021393D01*
X027916Y021484D02*
X027916Y021484D01*
X027916Y021484D01*
X027656Y021295D02*
X029470Y021295D01*
X029470Y021196D02*
X027391Y021196D01*
X027281Y021160D02*
X027281Y021160D01*
X027624Y021272D02*
X027624Y021272D01*
X027837Y020704D02*
X024290Y020704D01*
X024290Y020776D02*
X024308Y020794D01*
X024385Y020980D01*
X024385Y021180D01*
X024308Y021366D01*
X024166Y021508D01*
X023980Y021585D01*
X023780Y021585D01*
X023594Y021508D01*
X023452Y021366D01*
X023375Y021180D01*
X023375Y020980D01*
X023452Y020794D01*
X023470Y020776D01*
X023470Y020424D01*
X023452Y020406D01*
X023375Y020220D01*
X023375Y020020D01*
X023452Y019834D01*
X023594Y019692D01*
X023780Y019615D01*
X023980Y019615D01*
X024166Y019692D01*
X024308Y019834D01*
X024385Y020020D01*
X024385Y020220D01*
X024308Y020406D01*
X024290Y020424D01*
X024290Y020776D01*
X024311Y020802D02*
X029334Y020802D01*
X029238Y020704D02*
X028363Y020704D01*
X028580Y020605D02*
X029197Y020605D01*
X029156Y020507D02*
X028678Y020507D01*
X028777Y020408D02*
X029130Y020408D01*
X029130Y020310D02*
X028828Y020310D01*
X028869Y020211D02*
X029130Y020211D01*
X029148Y020113D02*
X028910Y020113D01*
X028920Y020014D02*
X029189Y020014D01*
X029230Y019916D02*
X028920Y019916D01*
X028920Y019817D02*
X029315Y019817D01*
X029413Y019719D02*
X028902Y019719D01*
X028861Y019620D02*
X029610Y019620D01*
X029432Y020901D02*
X024352Y020901D01*
X024385Y020999D02*
X029470Y020999D01*
X029470Y021098D02*
X024385Y021098D01*
X024379Y021196D02*
X026809Y021196D01*
X026576Y021272D02*
X026576Y021272D01*
X026544Y021295D02*
X024338Y021295D01*
X024281Y021393D02*
X026409Y021393D01*
X026284Y021484D02*
X026284Y021484D01*
X026284Y021484D01*
X026278Y021492D02*
X024183Y021492D01*
X023577Y021492D02*
X022370Y021492D01*
X022370Y021393D02*
X023479Y021393D01*
X023422Y021295D02*
X022370Y021295D01*
X022370Y021196D02*
X023381Y021196D01*
X023375Y021098D02*
X022370Y021098D01*
X022370Y020999D02*
X023375Y020999D01*
X023408Y020901D02*
X022370Y020901D01*
X022370Y020802D02*
X023449Y020802D01*
X023470Y020704D02*
X022370Y020704D01*
X022370Y020605D02*
X023470Y020605D01*
X023470Y020507D02*
X022370Y020507D01*
X022370Y020408D02*
X023454Y020408D01*
X023412Y020310D02*
X022370Y020310D01*
X022370Y020211D02*
X023375Y020211D01*
X023375Y020113D02*
X022370Y020113D01*
X022370Y020014D02*
X023377Y020014D01*
X023418Y019916D02*
X022392Y019916D01*
X022433Y019817D02*
X023469Y019817D01*
X023567Y019719D02*
X022465Y019719D01*
X022465Y019620D02*
X023767Y019620D01*
X023993Y019620D02*
X027339Y019620D01*
X027380Y019522D02*
X022458Y019522D01*
X022417Y019423D02*
X027442Y019423D01*
X027541Y019325D02*
X022359Y019325D01*
X022260Y019226D02*
X027645Y019226D01*
X027755Y019029D02*
X021650Y019029D01*
X021650Y018931D02*
X027677Y018931D01*
X027636Y018832D02*
X021650Y018832D01*
X021640Y018734D02*
X026850Y018734D01*
X026728Y018635D02*
X021599Y018635D01*
X021516Y018537D02*
X022159Y018537D01*
X021964Y018438D02*
X021486Y018438D01*
X021655Y018340D02*
X021865Y018340D01*
X021817Y018241D02*
X021750Y018241D01*
X022401Y018537D02*
X026659Y018537D01*
X026619Y018438D02*
X022596Y018438D01*
X022695Y018340D02*
X026600Y018340D01*
X026603Y018241D02*
X022743Y018241D01*
X022784Y018143D02*
X026625Y018143D01*
X026669Y018044D02*
X022785Y018044D01*
X022829Y017946D02*
X026747Y017946D01*
X026629Y017847D02*
X022892Y017847D01*
X022956Y017749D02*
X024235Y017749D01*
X024234Y017748D02*
X024092Y017606D01*
X024015Y017420D01*
X024015Y017220D01*
X024092Y017034D01*
X024110Y017016D01*
X024110Y015384D01*
X024092Y015366D01*
X024015Y015180D01*
X024015Y014980D01*
X024092Y014794D01*
X024234Y014652D01*
X024420Y014575D01*
X024454Y014575D01*
X024415Y014480D01*
X024415Y014280D01*
X024492Y014094D01*
X024510Y014076D01*
X024510Y013088D01*
X024280Y013252D01*
X024216Y013299D01*
X024214Y013300D01*
X024212Y013301D01*
X024135Y013319D01*
X024058Y013338D01*
X024055Y013337D01*
X024053Y013338D01*
X023975Y013325D01*
X023821Y013301D01*
X023690Y013355D01*
X023490Y013355D01*
X023304Y013278D01*
X023162Y013136D01*
X023085Y012950D01*
X023085Y012750D01*
X023162Y012564D01*
X023304Y012422D01*
X023490Y012345D01*
X023690Y012345D01*
X023876Y012422D01*
X023941Y012487D01*
X024120Y012359D01*
X024172Y012234D01*
X024314Y012092D01*
X024500Y012015D01*
X024700Y012015D01*
X024886Y012092D01*
X025028Y012234D01*
X025040Y012263D01*
X025206Y012332D01*
X025348Y012474D01*
X025425Y012660D01*
X025425Y012860D01*
X025348Y013046D01*
X025330Y013064D01*
X025330Y014076D01*
X025348Y014094D01*
X025425Y014280D01*
X025425Y014480D01*
X025348Y014666D01*
X025206Y014808D01*
X025020Y014885D01*
X024986Y014885D01*
X025025Y014980D01*
X025025Y015180D01*
X024948Y015366D01*
X024930Y015384D01*
X024930Y017016D01*
X024948Y017034D01*
X025025Y017220D01*
X025025Y017420D01*
X024948Y017606D01*
X024806Y017748D01*
X024620Y017825D01*
X024420Y017825D01*
X024234Y017748D01*
X024136Y017650D02*
X023023Y017650D01*
X023073Y017552D02*
X024069Y017552D01*
X024028Y017453D02*
X023101Y017453D01*
X023133Y017355D02*
X024015Y017355D01*
X024015Y017256D02*
X023165Y017256D01*
X023197Y017158D02*
X024041Y017158D01*
X024081Y017059D02*
X023229Y017059D01*
X023261Y016961D02*
X024110Y016961D01*
X024110Y016862D02*
X023294Y016862D01*
X023326Y016764D02*
X024110Y016764D01*
X024110Y016665D02*
X023358Y016665D01*
X023390Y016567D02*
X024110Y016567D01*
X024110Y016468D02*
X023414Y016468D01*
X023406Y016370D02*
X024110Y016370D01*
X024110Y016271D02*
X023398Y016271D01*
X023390Y016173D02*
X024110Y016173D01*
X024110Y016074D02*
X023382Y016074D01*
X023374Y015976D02*
X024110Y015976D01*
X024110Y015877D02*
X023366Y015877D01*
X023358Y015779D02*
X024110Y015779D01*
X024110Y015680D02*
X023350Y015680D01*
X023342Y015582D02*
X024110Y015582D01*
X024110Y015483D02*
X023334Y015483D01*
X023326Y015385D02*
X024110Y015385D01*
X024059Y015286D02*
X023318Y015286D01*
X023310Y015188D02*
X024018Y015188D01*
X024015Y015089D02*
X023302Y015089D01*
X023294Y014991D02*
X024015Y014991D01*
X024051Y014892D02*
X023285Y014892D01*
X023277Y014794D02*
X024092Y014794D01*
X024191Y014695D02*
X023269Y014695D01*
X023261Y014597D02*
X024368Y014597D01*
X024422Y014498D02*
X023253Y014498D01*
X023245Y014400D02*
X024415Y014400D01*
X024415Y014301D02*
X023237Y014301D01*
X023229Y014203D02*
X024447Y014203D01*
X024488Y014104D02*
X023221Y014104D01*
X023213Y014006D02*
X024510Y014006D01*
X024510Y013907D02*
X023205Y013907D01*
X023182Y013809D02*
X024510Y013809D01*
X024510Y013710D02*
X023161Y013710D01*
X023139Y013612D02*
X024510Y013612D01*
X024510Y013513D02*
X023118Y013513D01*
X023096Y013415D02*
X024510Y013415D01*
X024510Y013316D02*
X024147Y013316D01*
X024329Y013218D02*
X024510Y013218D01*
X024510Y013119D02*
X024467Y013119D01*
X023918Y013316D02*
X023785Y013316D01*
X023395Y013316D02*
X023075Y013316D01*
X023053Y013218D02*
X023243Y013218D01*
X023155Y013119D02*
X023032Y013119D01*
X023015Y013021D02*
X023114Y013021D01*
X023085Y012922D02*
X022997Y012922D01*
X022980Y012824D02*
X023085Y012824D01*
X023095Y012725D02*
X022963Y012725D01*
X022946Y012627D02*
X023136Y012627D01*
X023198Y012528D02*
X022928Y012528D01*
X022911Y012430D02*
X023296Y012430D01*
X022894Y012331D02*
X024132Y012331D01*
X024173Y012233D02*
X022905Y012233D01*
X022935Y012134D02*
X024272Y012134D01*
X024450Y012036D02*
X022935Y012036D01*
X022926Y011937D02*
X027715Y011937D01*
X027685Y012036D02*
X024750Y012036D01*
X024928Y012134D02*
X027152Y012134D01*
X027053Y012233D02*
X025027Y012233D01*
X025204Y012331D02*
X026994Y012331D01*
X026953Y012430D02*
X025304Y012430D01*
X025371Y012528D02*
X026945Y012528D01*
X026945Y012627D02*
X025411Y012627D01*
X025425Y012725D02*
X026976Y012725D01*
X027017Y012824D02*
X025425Y012824D01*
X025399Y012922D02*
X027108Y012922D01*
X027266Y013021D02*
X025359Y013021D01*
X025330Y013119D02*
X027769Y013119D01*
X027799Y013218D02*
X025330Y013218D01*
X025330Y013316D02*
X027829Y013316D01*
X027859Y013415D02*
X027356Y013415D01*
X027507Y013513D02*
X027889Y013513D01*
X027919Y013612D02*
X027595Y013612D01*
X027636Y013710D02*
X027949Y013710D01*
X027912Y013809D02*
X027665Y013809D01*
X027665Y013907D02*
X027811Y013907D01*
X026964Y013415D02*
X025330Y013415D01*
X025330Y013513D02*
X026813Y013513D01*
X026725Y013612D02*
X025330Y013612D01*
X025330Y013710D02*
X026684Y013710D01*
X026655Y013809D02*
X025330Y013809D01*
X025330Y013907D02*
X026655Y013907D01*
X026665Y014006D02*
X025330Y014006D01*
X025352Y014104D02*
X026670Y014104D01*
X026670Y014203D02*
X025393Y014203D01*
X025425Y014301D02*
X026670Y014301D01*
X026670Y014400D02*
X025425Y014400D01*
X025418Y014498D02*
X026670Y014498D01*
X026670Y014597D02*
X025377Y014597D01*
X025319Y014695D02*
X026670Y014695D01*
X026670Y014794D02*
X025221Y014794D01*
X024989Y014892D02*
X026670Y014892D01*
X026670Y014991D02*
X025025Y014991D01*
X025025Y015089D02*
X026670Y015089D01*
X026621Y015188D02*
X025022Y015188D01*
X024981Y015286D02*
X026581Y015286D01*
X026575Y015385D02*
X024930Y015385D01*
X024930Y015483D02*
X026575Y015483D01*
X026609Y015582D02*
X024930Y015582D01*
X024930Y015680D02*
X026649Y015680D01*
X026603Y015779D02*
X024930Y015779D01*
X024930Y015877D02*
X026505Y015877D01*
X026455Y015976D02*
X024930Y015976D01*
X024930Y016074D02*
X026414Y016074D01*
X026380Y016173D02*
X024930Y016173D01*
X024930Y016271D02*
X026380Y016271D01*
X026380Y016370D02*
X024930Y016370D01*
X024930Y016468D02*
X026390Y016468D01*
X026431Y016567D02*
X024930Y016567D01*
X024930Y016665D02*
X026472Y016665D01*
X026545Y016764D02*
X024930Y016764D01*
X024930Y016862D02*
X026520Y016862D01*
X026461Y016961D02*
X024930Y016961D01*
X024959Y017059D02*
X026420Y017059D01*
X026380Y017158D02*
X024999Y017158D01*
X025025Y017256D02*
X026380Y017256D01*
X026380Y017355D02*
X025025Y017355D01*
X025012Y017453D02*
X026384Y017453D01*
X026425Y017552D02*
X024971Y017552D01*
X024904Y017650D02*
X026466Y017650D01*
X026530Y017749D02*
X024805Y017749D01*
X027062Y018340D02*
X027138Y018340D01*
X027138Y018338D02*
X027138Y018800D01*
X027139Y018800D01*
X027217Y018788D01*
X027292Y018763D01*
X027362Y018728D01*
X027426Y018681D01*
X027481Y018626D01*
X027528Y018562D01*
X027563Y018492D01*
X027588Y018417D01*
X027600Y018339D01*
X027600Y018338D01*
X027138Y018338D01*
X027138Y018438D02*
X027062Y018438D01*
X027062Y018537D02*
X027138Y018537D01*
X027138Y018635D02*
X027062Y018635D01*
X027062Y018734D02*
X027138Y018734D01*
X027350Y018734D02*
X027615Y018734D01*
X027615Y018635D02*
X027472Y018635D01*
X027541Y018537D02*
X027633Y018537D01*
X027674Y018438D02*
X027581Y018438D01*
X027600Y018340D02*
X027710Y018340D01*
X027710Y018241D02*
X027597Y018241D01*
X027575Y018143D02*
X027710Y018143D01*
X027710Y018044D02*
X027531Y018044D01*
X027453Y017946D02*
X027710Y017946D01*
X027710Y017847D02*
X027571Y017847D01*
X027670Y017749D02*
X027710Y017749D01*
X028548Y016567D02*
X028598Y016567D01*
X027881Y019128D02*
X021650Y019128D01*
X021650Y019226D02*
X021660Y019226D01*
X020872Y020901D02*
X020255Y020901D01*
X020353Y020999D02*
X021070Y020999D01*
X021070Y021098D02*
X020414Y021098D01*
X020455Y021196D02*
X021070Y021196D01*
X021070Y021295D02*
X020465Y021295D01*
X020465Y021393D02*
X021036Y021393D01*
X020995Y021492D02*
X020436Y021492D01*
X020395Y021590D02*
X020975Y021590D01*
X020975Y021689D02*
X020370Y021689D01*
X020370Y021787D02*
X020994Y021787D01*
X021035Y021886D02*
X020370Y021886D01*
X020370Y021984D02*
X021110Y021984D01*
X021229Y022083D02*
X020370Y022083D01*
X020370Y022181D02*
X021547Y022181D01*
X021645Y022280D02*
X020370Y022280D01*
X020370Y022378D02*
X021843Y022378D01*
X022077Y022378D02*
X025960Y022378D01*
X025960Y022280D02*
X022275Y022280D01*
X022373Y022181D02*
X025960Y022181D01*
X025972Y022083D02*
X022423Y022083D01*
X022464Y021984D02*
X026004Y021984D01*
X026036Y021886D02*
X022465Y021886D01*
X022465Y021787D02*
X026068Y021787D01*
X026072Y021776D02*
X026072Y021776D01*
X026135Y021689D02*
X022427Y021689D01*
X022384Y021590D02*
X026207Y021590D01*
X025960Y022477D02*
X020370Y022477D01*
X020370Y022575D02*
X025991Y022575D01*
X026023Y022674D02*
X020370Y022674D01*
X020370Y022772D02*
X026055Y022772D01*
X026072Y022824D02*
X026072Y022824D01*
X026105Y022871D02*
X020370Y022871D01*
X020370Y022969D02*
X026177Y022969D01*
X026249Y023068D02*
X022591Y023068D01*
X022710Y023166D02*
X026353Y023166D01*
X026284Y023116D02*
X026284Y023116D01*
X026284Y023116D01*
X026488Y023265D02*
X022785Y023265D01*
X022826Y023363D02*
X026683Y023363D01*
X026576Y023328D02*
X026576Y023328D01*
X027517Y023363D02*
X032516Y023363D01*
X032617Y023265D02*
X027712Y023265D01*
X027624Y023328D02*
X027624Y023328D01*
X027847Y023166D02*
X032718Y023166D01*
X032819Y023068D02*
X027951Y023068D01*
X027916Y023116D02*
X027916Y023116D01*
X027916Y023116D01*
X028023Y022969D02*
X032084Y022969D01*
X031902Y022871D02*
X028095Y022871D01*
X028128Y022824D02*
X028128Y022824D01*
X030015Y022772D02*
X031804Y022772D01*
X031725Y022674D02*
X030184Y022674D01*
X030268Y022575D02*
X031685Y022575D01*
X031644Y022477D02*
X030318Y022477D01*
X032155Y021590D02*
X032183Y021590D01*
X032196Y021492D02*
X034112Y021492D01*
X034050Y021590D02*
X032517Y021590D01*
X032755Y021689D02*
X033989Y021689D01*
X033927Y021787D02*
X032855Y021787D01*
X032954Y021886D02*
X033848Y021886D01*
X033768Y021984D02*
X032998Y021984D01*
X033039Y022083D02*
X033689Y022083D01*
X033610Y022181D02*
X033070Y022181D01*
X033070Y022280D02*
X033531Y022280D01*
X033452Y022378D02*
X033070Y022378D01*
X033056Y022477D02*
X033372Y022477D01*
X033293Y022575D02*
X033015Y022575D01*
X032975Y022674D02*
X033214Y022674D01*
X033122Y022772D02*
X032896Y022772D01*
X032798Y022871D02*
X033021Y022871D01*
X032920Y022969D02*
X032616Y022969D01*
X032414Y023462D02*
X022845Y023462D01*
X022896Y023560D02*
X032310Y023560D01*
X032181Y023659D02*
X022972Y023659D01*
X023047Y023757D02*
X032052Y023757D01*
X031923Y023856D02*
X023123Y023856D01*
X023199Y023954D02*
X031794Y023954D01*
X031665Y024053D02*
X024741Y024053D01*
X024868Y024151D02*
X031536Y024151D01*
X031407Y024250D02*
X024966Y024250D01*
X025025Y024348D02*
X031249Y024348D01*
X031081Y024447D02*
X025066Y024447D01*
X025107Y024545D02*
X030913Y024545D01*
X030746Y024644D02*
X025110Y024644D01*
X025110Y024742D02*
X030578Y024742D01*
X030410Y024841D02*
X025110Y024841D01*
X025072Y024939D02*
X030207Y024939D01*
X029981Y025038D02*
X025031Y025038D01*
X024980Y025136D02*
X029754Y025136D01*
X029528Y025235D02*
X024882Y025235D01*
X024775Y025333D02*
X029302Y025333D01*
X028996Y025432D02*
X024538Y025432D01*
X024202Y025432D02*
X023398Y025432D01*
X023635Y025333D02*
X023965Y025333D01*
X023858Y025235D02*
X023742Y025235D01*
X023062Y025432D02*
X021088Y025432D01*
X021263Y025333D02*
X021515Y025333D01*
X022085Y025333D02*
X022825Y025333D01*
X022718Y025235D02*
X022262Y025235D01*
X022360Y025136D02*
X022620Y025136D01*
X022569Y025038D02*
X022440Y025038D01*
X022481Y024939D02*
X022528Y024939D01*
X022092Y023954D02*
X022054Y023954D01*
X021971Y023856D02*
X020557Y023856D01*
X020598Y023954D02*
X021546Y023954D01*
X021351Y024053D02*
X021050Y024053D01*
X021248Y024151D02*
X021252Y024151D01*
X021896Y023757D02*
X020471Y023757D01*
X020370Y023659D02*
X021855Y023659D01*
X021835Y023560D02*
X020370Y023560D01*
X020370Y023462D02*
X021835Y023462D01*
X021854Y023363D02*
X020370Y023363D01*
X020370Y023265D02*
X021895Y023265D01*
X021970Y023166D02*
X020370Y023166D01*
X020370Y023068D02*
X022089Y023068D01*
X023601Y024053D02*
X023999Y024053D01*
X023872Y024151D02*
X023728Y024151D01*
X026406Y025924D02*
X018945Y025924D01*
X018931Y025826D02*
X027354Y025826D01*
X027933Y025727D02*
X018890Y025727D01*
X018850Y025629D02*
X028335Y025629D01*
X028666Y025530D02*
X018850Y025530D01*
X018850Y025432D02*
X020512Y025432D01*
X020337Y025333D02*
X020085Y025333D01*
X019515Y025333D02*
X018850Y025333D01*
X018862Y025235D02*
X019338Y025235D01*
X019240Y025136D02*
X018960Y025136D01*
X019040Y025038D02*
X019160Y025038D01*
X019119Y024939D02*
X019081Y024939D01*
X018030Y025333D02*
X017863Y025333D01*
X018030Y025432D02*
X017688Y025432D01*
X018030Y025530D02*
X006479Y025530D01*
X006416Y025616D02*
X006416Y025616D01*
X006416Y025616D01*
X006399Y025629D02*
X018030Y025629D01*
X017990Y025727D02*
X006264Y025727D01*
X006128Y025826D02*
X017949Y025826D01*
X017935Y025924D02*
X006494Y025924D01*
X006124Y025828D02*
X006124Y025828D01*
X006550Y025432D02*
X017112Y025432D01*
X016937Y025333D02*
X016685Y025333D01*
X016115Y025333D02*
X006622Y025333D01*
X006628Y025324D02*
X006628Y025324D01*
X006657Y025235D02*
X015938Y025235D01*
X015840Y025136D02*
X006689Y025136D01*
X006721Y025038D02*
X015760Y025038D01*
X015719Y024939D02*
X011215Y024939D01*
X011206Y024948D02*
X011020Y025025D01*
X010820Y025025D01*
X010634Y024948D01*
X010492Y024806D01*
X010415Y024620D01*
X010415Y024420D01*
X010492Y024234D01*
X010510Y024216D01*
X010510Y023464D01*
X010492Y023446D01*
X010415Y023260D01*
X010415Y023060D01*
X010492Y022874D01*
X010634Y022732D01*
X010820Y022655D01*
X011020Y022655D01*
X011206Y022732D01*
X011348Y022874D01*
X011425Y023060D01*
X011425Y023260D01*
X011348Y023446D01*
X011330Y023464D01*
X011330Y024216D01*
X011348Y024234D01*
X011425Y024420D01*
X011425Y024620D01*
X011348Y024806D01*
X011206Y024948D01*
X011314Y024841D02*
X015678Y024841D01*
X015660Y024742D02*
X011375Y024742D01*
X011415Y024644D02*
X015660Y024644D01*
X015660Y024545D02*
X011425Y024545D01*
X011425Y024447D02*
X015683Y024447D01*
X015724Y024348D02*
X011395Y024348D01*
X011355Y024250D02*
X015765Y024250D01*
X015852Y024151D02*
X011330Y024151D01*
X011330Y024053D02*
X013018Y024053D01*
X012920Y023954D02*
X011330Y023954D01*
X011330Y023856D02*
X012863Y023856D01*
X012822Y023757D02*
X011330Y023757D01*
X011330Y023659D02*
X012815Y023659D01*
X012815Y023560D02*
X011330Y023560D01*
X011333Y023462D02*
X012847Y023462D01*
X012888Y023363D02*
X011383Y023363D01*
X011423Y023265D02*
X012910Y023265D01*
X012910Y023166D02*
X011425Y023166D01*
X011425Y023068D02*
X012910Y023068D01*
X012910Y022969D02*
X011388Y022969D01*
X011345Y022871D02*
X012910Y022871D01*
X012910Y022772D02*
X011246Y022772D01*
X011065Y022674D02*
X012910Y022674D01*
X012910Y022575D02*
X009650Y022575D01*
X009650Y022477D02*
X012910Y022477D01*
X012910Y022378D02*
X009650Y022378D01*
X009650Y022280D02*
X012910Y022280D01*
X012910Y022181D02*
X009650Y022181D01*
X009650Y022083D02*
X012910Y022083D01*
X012910Y021984D02*
X009650Y021984D01*
X009650Y021886D02*
X012910Y021886D01*
X012910Y021787D02*
X009650Y021787D01*
X009650Y021689D02*
X012910Y021689D01*
X012910Y021590D02*
X009650Y021590D01*
X009650Y021492D02*
X012910Y021492D01*
X012910Y021393D02*
X009650Y021393D01*
X009650Y021295D02*
X012910Y021295D01*
X012910Y021196D02*
X009650Y021196D01*
X009650Y021098D02*
X012910Y021098D01*
X012910Y020999D02*
X009650Y020999D01*
X009650Y020901D02*
X012910Y020901D01*
X012910Y020802D02*
X009650Y020802D01*
X009650Y020704D02*
X012910Y020704D01*
X012910Y020605D02*
X009650Y020605D01*
X009650Y020507D02*
X012910Y020507D01*
X012910Y020408D02*
X009650Y020408D01*
X009650Y020310D02*
X012910Y020310D01*
X012910Y020211D02*
X009693Y020211D01*
X009730Y020113D02*
X012910Y020113D01*
X012910Y020014D02*
X009730Y020014D01*
X009730Y019916D02*
X012910Y019916D01*
X012783Y019817D02*
X012160Y019817D01*
X012140Y019825D02*
X011940Y019825D01*
X011754Y019748D01*
X011612Y019606D01*
X011535Y019420D01*
X011535Y019220D01*
X011593Y019080D01*
X011535Y018940D01*
X011535Y018740D01*
X011612Y018554D01*
X011754Y018412D01*
X011940Y018335D01*
X012140Y018335D01*
X012326Y018412D01*
X012468Y018554D01*
X012545Y018740D01*
X012545Y018940D01*
X012487Y019080D01*
X012545Y019220D01*
X012545Y019420D01*
X012468Y019606D01*
X012326Y019748D01*
X012140Y019825D01*
X011920Y019817D02*
X009730Y019817D01*
X009730Y019719D02*
X011724Y019719D01*
X011626Y019620D02*
X009722Y019620D01*
X009682Y019522D02*
X011577Y019522D01*
X011536Y019423D02*
X009603Y019423D01*
X009504Y019325D02*
X011535Y019325D01*
X011535Y019226D02*
X009406Y019226D01*
X009307Y019128D02*
X011573Y019128D01*
X011572Y019029D02*
X009209Y019029D01*
X009110Y018931D02*
X011535Y018931D01*
X011535Y018832D02*
X009090Y018832D01*
X009090Y018734D02*
X011537Y018734D01*
X011578Y018635D02*
X009090Y018635D01*
X009090Y018537D02*
X011629Y018537D01*
X011728Y018438D02*
X009090Y018438D01*
X009090Y018340D02*
X011929Y018340D01*
X012151Y018340D02*
X012670Y018340D01*
X012670Y018438D02*
X012352Y018438D01*
X012451Y018537D02*
X012670Y018537D01*
X012670Y018635D02*
X012502Y018635D01*
X012543Y018734D02*
X012670Y018734D01*
X012670Y018832D02*
X012545Y018832D01*
X012545Y018931D02*
X012670Y018931D01*
X012670Y019029D02*
X012508Y019029D01*
X012507Y019128D02*
X012646Y019128D01*
X012605Y019226D02*
X012545Y019226D01*
X012545Y019325D02*
X012575Y019325D01*
X012575Y019423D02*
X012544Y019423D01*
X012584Y019522D02*
X012503Y019522D01*
X012454Y019620D02*
X012625Y019620D01*
X012684Y019719D02*
X012356Y019719D01*
X012670Y018241D02*
X009090Y018241D01*
X009090Y018143D02*
X012670Y018143D01*
X012670Y018044D02*
X009090Y018044D01*
X009090Y017946D02*
X012670Y017946D01*
X012670Y017847D02*
X009090Y017847D01*
X009090Y017749D02*
X012670Y017749D01*
X014930Y017749D02*
X017570Y017749D01*
X017677Y017650D02*
X014930Y017650D01*
X014930Y017552D02*
X017636Y017552D01*
X017615Y017453D02*
X014930Y017453D01*
X014930Y017355D02*
X017615Y017355D01*
X017633Y017256D02*
X014930Y017256D01*
X014930Y017158D02*
X017674Y017158D01*
X017439Y017847D02*
X014930Y017847D01*
X014930Y017946D02*
X017359Y017946D01*
X017318Y018044D02*
X014930Y018044D01*
X014930Y018143D02*
X017295Y018143D01*
X017295Y018241D02*
X015100Y018241D01*
X015214Y018340D02*
X017311Y018340D01*
X017352Y018438D02*
X015286Y018438D01*
X015327Y018537D02*
X017422Y018537D01*
X017531Y018635D02*
X015345Y018635D01*
X015345Y018734D02*
X018067Y018734D01*
X018073Y018832D02*
X015324Y018832D01*
X015283Y018931D02*
X016894Y018931D01*
X016737Y019029D02*
X015205Y019029D01*
X015170Y019128D02*
X016646Y019128D01*
X016605Y019226D02*
X015170Y019226D01*
X015170Y019325D02*
X016575Y019325D01*
X016575Y019423D02*
X015170Y019423D01*
X015170Y019522D02*
X016584Y019522D01*
X016574Y019620D02*
X016625Y019620D01*
X015986Y019620D02*
X015170Y019620D01*
X015170Y019719D02*
X015887Y019719D01*
X015826Y019817D02*
X015170Y019817D01*
X015170Y019916D02*
X015785Y019916D01*
X015775Y020014D02*
X015170Y020014D01*
X015227Y020113D02*
X015775Y020113D01*
X015804Y020211D02*
X015292Y020211D01*
X015333Y020310D02*
X015845Y020310D01*
X015870Y020408D02*
X015345Y020408D01*
X015345Y020507D02*
X015870Y020507D01*
X015870Y020605D02*
X015318Y020605D01*
X015277Y020704D02*
X015870Y020704D01*
X015870Y020802D02*
X015192Y020802D01*
X015090Y020901D02*
X015870Y020901D01*
X015870Y020999D02*
X015090Y020999D01*
X015090Y021098D02*
X015826Y021098D01*
X015785Y021196D02*
X015090Y021196D01*
X015090Y021295D02*
X015775Y021295D01*
X015775Y021393D02*
X015124Y021393D01*
X015165Y021492D02*
X015804Y021492D01*
X015845Y021590D02*
X015185Y021590D01*
X015185Y021689D02*
X015934Y021689D01*
X015935Y021787D02*
X015166Y021787D01*
X015125Y021886D02*
X015935Y021886D01*
X015936Y021984D02*
X015090Y021984D01*
X015090Y022083D02*
X015977Y022083D01*
X016027Y022181D02*
X015090Y022181D01*
X015090Y022280D02*
X016030Y022280D01*
X016030Y022378D02*
X015090Y022378D01*
X015090Y022477D02*
X016030Y022477D01*
X016030Y022575D02*
X015090Y022575D01*
X015090Y022674D02*
X016030Y022674D01*
X016030Y022772D02*
X015090Y022772D01*
X015090Y022871D02*
X016030Y022871D01*
X016030Y022969D02*
X015114Y022969D01*
X015155Y023068D02*
X016030Y023068D01*
X016030Y023166D02*
X015185Y023166D01*
X015185Y023265D02*
X016030Y023265D01*
X016030Y023363D02*
X015176Y023363D01*
X015135Y023462D02*
X016030Y023462D01*
X016030Y023560D02*
X015074Y023560D01*
X014976Y023659D02*
X016030Y023659D01*
X016030Y023757D02*
X013818Y023757D01*
X013825Y023659D02*
X014384Y023659D01*
X014286Y023560D02*
X013825Y023560D01*
X013793Y023462D02*
X014225Y023462D01*
X014184Y023363D02*
X013752Y023363D01*
X013730Y023265D02*
X014175Y023265D01*
X014175Y023166D02*
X013730Y023166D01*
X013730Y023068D02*
X014205Y023068D01*
X014246Y022969D02*
X013730Y022969D01*
X013730Y022871D02*
X014270Y022871D01*
X014270Y022772D02*
X013730Y022772D01*
X013730Y022674D02*
X014270Y022674D01*
X014270Y022575D02*
X013730Y022575D01*
X013730Y022477D02*
X014270Y022477D01*
X014270Y022378D02*
X013730Y022378D01*
X013936Y022280D02*
X014270Y022280D01*
X014270Y022181D02*
X014093Y022181D01*
X014184Y022083D02*
X014270Y022083D01*
X014270Y021984D02*
X014225Y021984D01*
X013777Y023856D02*
X016030Y023856D01*
X016030Y023954D02*
X013720Y023954D01*
X013622Y024053D02*
X015951Y024053D01*
X018145Y020211D02*
X018168Y020211D01*
X018161Y020113D02*
X018117Y020113D01*
X018154Y020014D02*
X018076Y020014D01*
X018148Y019916D02*
X017990Y019916D01*
X017842Y019817D02*
X018141Y019817D01*
X018134Y019719D02*
X017490Y019719D01*
X017535Y019620D02*
X018127Y019620D01*
X018121Y019522D02*
X017576Y019522D01*
X017585Y019423D02*
X018114Y019423D01*
X018107Y019325D02*
X017585Y019325D01*
X017555Y019226D02*
X018100Y019226D01*
X018094Y019128D02*
X017514Y019128D01*
X017423Y019029D02*
X018087Y019029D01*
X018080Y018931D02*
X017266Y018931D01*
X021090Y015269D02*
X021220Y015215D01*
X021420Y015215D01*
X021606Y015292D01*
X021700Y015385D01*
X021745Y014545D01*
X021700Y014545D01*
X021514Y014468D01*
X021372Y014326D01*
X021295Y014140D01*
X021321Y014203D02*
X021090Y014203D01*
X021090Y014301D02*
X021362Y014301D01*
X021445Y014400D02*
X021090Y014400D01*
X021090Y014498D02*
X021586Y014498D01*
X021742Y014597D02*
X021090Y014597D01*
X021090Y014695D02*
X021737Y014695D01*
X021732Y014794D02*
X021090Y014794D01*
X021090Y014892D02*
X021726Y014892D01*
X021721Y014991D02*
X021090Y014991D01*
X021090Y015089D02*
X021716Y015089D01*
X021710Y015188D02*
X021090Y015188D01*
X021090Y015269D02*
X021090Y014104D01*
X021141Y014006D02*
X021295Y014006D01*
X021308Y013907D02*
X021182Y013907D01*
X021185Y013809D02*
X021349Y013809D01*
X021390Y013710D02*
X021185Y013710D01*
X021149Y013612D02*
X021390Y013612D01*
X021390Y013513D02*
X021107Y013513D01*
X021009Y013415D02*
X021390Y013415D01*
X021390Y013316D02*
X020831Y013316D01*
X020529Y013316D02*
X018850Y013316D01*
X018850Y013218D02*
X021390Y013218D01*
X021390Y013119D02*
X018850Y013119D01*
X018850Y013021D02*
X021390Y013021D01*
X021390Y012922D02*
X018850Y012922D01*
X018850Y012824D02*
X021390Y012824D01*
X021390Y012725D02*
X018850Y012725D01*
X018850Y012627D02*
X021390Y012627D01*
X021390Y012528D02*
X018850Y012528D01*
X018850Y012430D02*
X021390Y012430D01*
X021390Y012331D02*
X018850Y012331D01*
X018850Y012233D02*
X021390Y012233D01*
X021390Y012134D02*
X018850Y012134D01*
X018850Y012036D02*
X021390Y012036D01*
X021390Y011937D02*
X018850Y011937D01*
X018850Y011839D02*
X021390Y011839D01*
X021390Y011740D02*
X018850Y011740D01*
X018887Y011642D02*
X021390Y011642D01*
X021390Y011543D02*
X018927Y011543D01*
X018945Y011445D02*
X021371Y011445D01*
X021044Y011346D02*
X020944Y011346D01*
X020944Y011248D02*
X021044Y011248D01*
X021044Y011149D02*
X020944Y011149D01*
X020944Y011051D02*
X021044Y011051D01*
X020944Y010952D02*
X018678Y010952D01*
X018805Y011051D02*
X020352Y011051D01*
X020352Y011149D02*
X018883Y011149D01*
X018923Y011248D02*
X020352Y011248D01*
X020396Y011346D02*
X018945Y011346D01*
X018297Y009770D02*
X020303Y009770D01*
X020198Y009672D02*
X018402Y009672D01*
X018449Y009573D02*
X020151Y009573D01*
X020132Y009475D02*
X018545Y009475D01*
X018644Y009376D02*
X020132Y009376D01*
X020132Y009278D02*
X018722Y009278D01*
X018799Y009179D02*
X020132Y009179D01*
X020132Y009081D02*
X018840Y009081D01*
X018865Y008982D02*
X020132Y008982D01*
X020132Y008884D02*
X018865Y008884D01*
X018851Y008785D02*
X020133Y008785D01*
X020173Y008687D02*
X018810Y008687D01*
X018742Y008588D02*
X020251Y008588D01*
X021736Y008588D02*
X022364Y008588D01*
X022286Y008687D02*
X021814Y008687D01*
X021855Y008785D02*
X022245Y008785D01*
X022244Y008884D02*
X021856Y008884D01*
X021856Y008982D02*
X022244Y008982D01*
X022244Y009081D02*
X021856Y009081D01*
X021856Y009179D02*
X022244Y009179D01*
X022244Y009278D02*
X021856Y009278D01*
X021856Y009376D02*
X022244Y009376D01*
X022244Y009475D02*
X021856Y009475D01*
X021836Y009573D02*
X022264Y009573D01*
X022311Y009672D02*
X021789Y009672D01*
X021684Y009770D02*
X022416Y009770D01*
X022493Y010558D02*
X021607Y010558D01*
X021636Y010657D02*
X021696Y010657D01*
X021904Y010657D02*
X022464Y010657D01*
X022464Y010755D02*
X022109Y010755D01*
X022208Y010854D02*
X022464Y010854D01*
X022464Y011051D02*
X022301Y011051D01*
X022305Y011149D02*
X022464Y011149D01*
X022464Y011248D02*
X022305Y011248D01*
X022270Y011346D02*
X022509Y011346D01*
X022229Y011445D02*
X028510Y011445D01*
X028510Y011543D02*
X022210Y011543D01*
X022726Y011642D02*
X028001Y011642D01*
X027846Y011740D02*
X022824Y011740D01*
X022885Y011839D02*
X027756Y011839D01*
X028379Y011642D02*
X028510Y011642D01*
X028510Y011346D02*
X027091Y011346D01*
X027078Y011359D02*
X027044Y011379D01*
X027006Y011389D01*
X026544Y011389D01*
X026544Y010994D01*
X027136Y010994D01*
X027136Y011259D01*
X027126Y011297D01*
X027106Y011331D01*
X027078Y011359D01*
X027136Y011248D02*
X028510Y011248D01*
X028510Y011149D02*
X027136Y011149D01*
X027136Y011051D02*
X028510Y011051D01*
X026544Y011051D02*
X026444Y011051D01*
X026444Y011149D02*
X026544Y011149D01*
X026544Y011248D02*
X026444Y011248D01*
X026444Y011346D02*
X026544Y011346D01*
X025896Y011346D02*
X023704Y011346D01*
X023748Y011248D02*
X025852Y011248D01*
X025852Y011149D02*
X023748Y011149D01*
X023748Y011051D02*
X025852Y011051D01*
X025852Y010854D02*
X023748Y010854D01*
X023748Y010755D02*
X025852Y010755D01*
X025852Y010657D02*
X023748Y010657D01*
X024106Y010558D02*
X025881Y010558D01*
X025935Y010460D02*
X024205Y010460D01*
X024265Y010361D02*
X025935Y010361D01*
X025967Y010263D02*
X024306Y010263D01*
X024315Y010164D02*
X026008Y010164D01*
X026030Y010066D02*
X024315Y010066D01*
X024285Y009967D02*
X026030Y009967D01*
X026030Y009869D02*
X024244Y009869D01*
X024154Y009770D02*
X025803Y009770D01*
X025698Y009672D02*
X024105Y009672D01*
X024078Y009573D02*
X025651Y009573D01*
X025632Y009475D02*
X024051Y009475D01*
X024023Y009376D02*
X025632Y009376D01*
X025632Y009278D02*
X023996Y009278D01*
X023970Y009179D02*
X025632Y009179D01*
X025632Y009081D02*
X023968Y009081D01*
X023968Y008982D02*
X025632Y008982D01*
X025632Y008884D02*
X023968Y008884D01*
X023967Y008785D02*
X025633Y008785D01*
X025673Y008687D02*
X023927Y008687D01*
X023849Y008588D02*
X025751Y008588D01*
X027356Y008884D02*
X030374Y008884D01*
X029612Y013415D02*
X029410Y013415D01*
X029410Y013513D02*
X029647Y013513D01*
X029708Y013612D02*
X029410Y013612D01*
X029410Y013710D02*
X029814Y013710D01*
X032530Y018044D02*
X032554Y018044D01*
X032530Y018143D02*
X032590Y018143D01*
X032590Y018241D02*
X032530Y018241D01*
X032530Y018340D02*
X032590Y018340D01*
X032590Y018438D02*
X032530Y018438D01*
X032530Y018537D02*
X032590Y018537D01*
X032590Y018635D02*
X032516Y018635D01*
X032475Y018734D02*
X032590Y018734D01*
X032590Y018832D02*
X032388Y018832D01*
X032289Y018931D02*
X032590Y018931D01*
X032541Y019029D02*
X032191Y019029D01*
X032130Y019128D02*
X032500Y019128D01*
X032495Y019226D02*
X032130Y019226D01*
X032130Y019325D02*
X032495Y019325D01*
X032529Y019423D02*
X032130Y019423D01*
X032130Y019522D02*
X032570Y019522D01*
X032590Y019620D02*
X032666Y019620D01*
X032787Y019719D02*
X032836Y019719D01*
X032885Y019817D02*
X033280Y019817D01*
X033280Y019916D02*
X032970Y019916D01*
X033011Y020014D02*
X033280Y020014D01*
X033290Y020113D02*
X033052Y020113D01*
X033070Y020211D02*
X033331Y020211D01*
X033372Y020310D02*
X033070Y020310D01*
X033070Y020408D02*
X033423Y020408D01*
X033522Y020507D02*
X033044Y020507D01*
X033003Y020605D02*
X033620Y020605D01*
X033837Y020704D02*
X032962Y020704D01*
X032866Y020802D02*
X034540Y020802D01*
X034592Y020704D02*
X034363Y020704D01*
X034479Y020901D02*
X032768Y020901D01*
X032544Y020999D02*
X034418Y020999D01*
X034357Y021098D02*
X032174Y021098D01*
X032156Y020999D02*
X032130Y020999D01*
X032215Y021196D02*
X034295Y021196D01*
X034234Y021295D02*
X032225Y021295D01*
X032225Y021393D02*
X034173Y021393D01*
X034580Y020605D02*
X034638Y020605D01*
X034678Y020507D02*
X034684Y020507D01*
X033298Y019719D02*
X033164Y019719D01*
X033334Y019620D02*
X033339Y019620D01*
X027620Y020605D02*
X024290Y020605D01*
X024290Y020507D02*
X027522Y020507D01*
X027423Y020408D02*
X024306Y020408D01*
X024348Y020310D02*
X027372Y020310D01*
X027331Y020211D02*
X024385Y020211D01*
X024385Y020113D02*
X027290Y020113D01*
X027280Y020014D02*
X024383Y020014D01*
X024342Y019916D02*
X027280Y019916D01*
X027280Y019817D02*
X024291Y019817D01*
X024193Y019719D02*
X027298Y019719D01*
X021700Y015385D02*
X021699Y015385D01*
X021705Y015286D02*
X021592Y015286D01*
X020219Y014006D02*
X020145Y014006D01*
X020132Y013907D02*
X020178Y013907D01*
X020175Y013809D02*
X020091Y013809D01*
X020024Y013710D02*
X020175Y013710D01*
X020211Y013612D02*
X019925Y013612D01*
X020253Y013513D02*
X019107Y013513D01*
X019149Y013612D02*
X019355Y013612D01*
X019256Y013710D02*
X019185Y013710D01*
X019185Y013809D02*
X019189Y013809D01*
X019009Y013415D02*
X020351Y013415D01*
X023056Y011346D02*
X023156Y011346D01*
X023156Y011248D02*
X023056Y011248D01*
X023056Y011149D02*
X023156Y011149D01*
X023156Y011051D02*
X023056Y011051D01*
X023056Y010952D02*
X022260Y010952D01*
X021044Y010854D02*
X020944Y010854D01*
X020944Y010755D02*
X021044Y010755D01*
X021044Y010657D02*
X020944Y010657D01*
X020944Y010558D02*
X021044Y010558D01*
X023884Y012430D02*
X024021Y012430D01*
X010775Y022674D02*
X009650Y022674D01*
X009650Y022772D02*
X010594Y022772D01*
X010495Y022871D02*
X009650Y022871D01*
X009650Y022969D02*
X010452Y022969D01*
X010415Y023068D02*
X009692Y023068D01*
X009730Y023166D02*
X010415Y023166D01*
X010417Y023265D02*
X009730Y023265D01*
X009730Y023363D02*
X010457Y023363D01*
X010507Y023462D02*
X009730Y023462D01*
X009730Y023560D02*
X010510Y023560D01*
X010510Y023659D02*
X009745Y023659D01*
X009745Y023757D02*
X010510Y023757D01*
X010510Y023856D02*
X009730Y023856D01*
X009690Y023954D02*
X010510Y023954D01*
X010510Y024053D02*
X009622Y024053D01*
X009519Y024151D02*
X010510Y024151D01*
X010485Y024250D02*
X006609Y024250D01*
X006628Y024276D02*
X006628Y024276D01*
X006652Y024348D02*
X010445Y024348D01*
X010415Y024447D02*
X006684Y024447D01*
X006716Y024545D02*
X010415Y024545D01*
X010425Y024644D02*
X006740Y024644D01*
X006740Y024742D02*
X010465Y024742D01*
X010526Y024841D02*
X006740Y024841D01*
X006740Y024939D02*
X010625Y024939D01*
X008961Y024151D02*
X006538Y024151D01*
X006466Y024053D02*
X008858Y024053D01*
X008790Y023954D02*
X006375Y023954D01*
X006416Y023984D02*
X006416Y023984D01*
X006416Y023984D01*
X006240Y023856D02*
X008750Y023856D01*
X008735Y023757D02*
X006079Y023757D01*
X006124Y023772D02*
X006124Y023772D01*
X006959Y023462D02*
X004970Y023462D01*
X004970Y023560D02*
X007047Y023560D01*
X006918Y023363D02*
X004970Y023363D01*
X004970Y023265D02*
X006910Y023265D01*
X006910Y023166D02*
X004970Y023166D01*
X004970Y023068D02*
X006910Y023068D01*
X006910Y022969D02*
X004970Y022969D01*
X004970Y022871D02*
X006910Y022871D01*
X006910Y022772D02*
X004970Y022772D01*
X004970Y022674D02*
X006910Y022674D01*
X006910Y022575D02*
X004970Y022575D01*
X004970Y022477D02*
X006910Y022477D01*
X006918Y022378D02*
X004970Y022378D01*
X004970Y022280D02*
X006820Y022280D01*
X006728Y022181D02*
X004970Y022181D01*
X004970Y022083D02*
X006687Y022083D01*
X005244Y021393D02*
X004970Y021393D01*
X004970Y021295D02*
X005118Y021295D01*
X004986Y021196D02*
X004970Y021196D01*
X008382Y023363D02*
X008411Y023363D01*
X008341Y023462D02*
X008507Y023462D01*
X008679Y023560D02*
X008253Y023560D01*
X008735Y023659D02*
X004970Y023659D01*
X004970Y023757D02*
X005121Y023757D01*
X005076Y023772D02*
X005076Y023772D01*
M02*
