G75*
G70*
%OFA0B0*%
%FSLAX24Y24*%
%IPPOS*%
%LPD*%
%AMOC8*
5,1,8,0,0,1.08239X$1,22.5*
%
%ADD10OC8,0.0820*%
%ADD11R,0.1064X0.0671*%
%ADD12R,0.0480X0.0880*%
%ADD13C,0.0650*%
%ADD14C,0.0820*%
%ADD15R,0.0820X0.0820*%
%ADD16R,0.0867X0.0277*%
%ADD17C,0.0980*%
%ADD18C,0.0780*%
%ADD19C,0.1380*%
D10*
X007500Y012300D03*
X007500Y013300D03*
X008500Y013300D03*
X009500Y013300D03*
X009500Y012300D03*
X008500Y012300D03*
D11*
X008606Y008956D03*
X008606Y010744D03*
X011994Y010744D03*
X011994Y008956D03*
X017606Y009156D03*
X017606Y010944D03*
X020994Y010944D03*
X023106Y010944D03*
X023106Y009156D03*
X020994Y009156D03*
X026494Y009156D03*
X026494Y010944D03*
D12*
X015716Y011112D03*
X014716Y011112D03*
X013716Y011112D03*
X013684Y008488D03*
X014684Y008488D03*
X015684Y008488D03*
D13*
X029632Y010338D03*
X029768Y009562D03*
D14*
X024370Y024700D03*
X023230Y024700D03*
X021800Y024650D03*
X020800Y024750D03*
X019800Y024650D03*
X018400Y024650D03*
X017400Y024750D03*
X016400Y024650D03*
X007750Y021900D03*
X007650Y020900D03*
X007750Y019900D03*
X007550Y017700D03*
X007650Y016700D03*
X007550Y015700D03*
D15*
X007650Y014700D03*
X007650Y022900D03*
D16*
X020207Y020397D03*
X020207Y020082D03*
X020207Y019767D03*
X020207Y019452D03*
X020207Y019137D03*
X020207Y018822D03*
X020207Y018507D03*
X020207Y018193D03*
X020207Y017878D03*
X020207Y017563D03*
X020207Y017248D03*
X020207Y016933D03*
X020207Y016618D03*
X020207Y016303D03*
D17*
X028100Y014675D03*
X034100Y014675D03*
X034100Y019925D03*
X028100Y019925D03*
D18*
X029850Y020300D03*
X027100Y018300D03*
X027100Y017300D03*
X027100Y016300D03*
X030100Y013300D03*
X031100Y013300D03*
X032100Y013300D03*
X032350Y020300D03*
X032350Y022300D03*
X029850Y022300D03*
D19*
X027100Y022300D03*
X005600Y024800D03*
X005600Y009800D03*
M02*
